<?xml version="1.0" encoding="utf-8"?>
<!-- Generator: Adobe Illustrator 25.0.0, SVG Export Plug-In . SVG Version: 6.00 Build 0)  -->
<svg version="1.1" id="Layer_1" xmlns="http://www.w3.org/2000/svg" xmlns:xlink="http://www.w3.org/1999/xlink" x="0px" y="0px"
	 viewBox="0 0 247.1 209.9" style="enable-background:new 0 0 247.1 209.9;" xml:space="preserve">
<style type="text/css">
	.st0{fill:#E94335;}
	.st1{fill:#34A753;}
	.st2{fill:#4284F3;}
	.st3{fill:#FABB05;}
	.st4{fill:none;stroke:#5F6368;stroke-width:4.6711;stroke-miterlimit:10;}
</style>
<image style="overflow:visible;" width="296" height="134" xlink:href="D4716C65.jpg"  transform="matrix(9.3571 0 0 9.3571 2480.3191 -1090.1812)">
</image>
<g>
	<g>
		<path class="st0" d="M112.6,42.5c0.1,0.1,0.2,0.2,0.4,0.2c2.8,0.4,5.6,0.7,8.4,1.3c10.6,2.3,19.8,7.3,27.8,14.6
			c0,0,0.1,0.1,0.1,0.1c-5.9,5.9-11.8,11.8-17.8,17.8c-0.3-0.3-0.7-0.6-1-0.9c-5.6-4.9-12.2-7.6-19.6-8.2
			C95.2,66,81.4,74.7,74.7,87.9c-0.8,1.6-1.4,3.4-2.2,5.1c-4.8-3.7-9.5-7.4-14.3-11.1c-2.1-1.7-4.3-3.3-6.4-4.9
			c0.1-0.2,0.2-0.4,0.3-0.7C60.2,61.5,72,51.2,88,45.7c4.7-1.6,9.5-2.5,14.4-2.9c0.2,0,0.3-0.1,0.5-0.2
			C106.1,42.5,109.4,42.5,112.6,42.5z"/>
		<path class="st1" d="M72.6,116.9c1.1,3.1,2.4,6.1,4.3,8.8c6.1,9,14.3,14.8,25.1,16.5c9.4,1.5,18.3-0.2,26.5-5.4
			c0.1-0.1,0.2-0.1,0.3-0.2c0.1,0.1,0.2,0.2,0.3,0.3c5.2,4.1,10.5,8.1,15.7,12.2c1.3,1,2.7,2.1,4.1,3.1c-8.1,7.4-17.6,12-28.3,14
			c-2.4,0.5-4.9,0.7-7.4,1c-0.2,0-0.3,0.1-0.5,0.2c-3.3,0-6.6,0-9.9,0c-0.2-0.1-0.3-0.2-0.5-0.2c-5.7-0.5-11.3-1.7-16.6-3.8
			c-12.1-4.6-21.9-12.3-29.3-23c-1.7-2.4-3-5-4.5-7.5c0.2-0.1,0.4-0.3,0.5-0.4C59.2,127.3,65.9,122.1,72.6,116.9z"/>
		<path class="st2" d="M148.9,152.2c-1.4-1-2.7-2.1-4.1-3.1c-5.2-4.1-10.5-8.1-15.7-12.2c-0.1-0.1-0.2-0.2-0.3-0.3
			c1.7-1.5,3.6-2.9,5.2-4.5c3.8-3.9,6.1-8.6,7.2-13.9c0-0.1,0-0.1,0-0.2c-11.2,0-22.3,0-33.6,0c0-7.8,0-15.6,0-23.4
			c19.6,0,39.1,0,58.7,0c0.2,1.5,0.4,3,0.6,4.4c0.4,4,0.5,7.9,0.2,11.9c-1,14.7-5.7,27.9-16,38.9
			C150.5,150.6,149.7,151.4,148.9,152.2z"/>
		<path class="st3" d="M51.9,132.9c-1.8-3.4-3.2-7-4.3-10.7c-2.2-7.5-2.9-15.2-2.2-23.1c0.7-7.7,2.9-15,6.3-22
			c0-0.1,0.1-0.1,0.1-0.1c2.1,1.6,4.3,3.3,6.4,4.9c4.8,3.7,9.5,7.4,14.3,11.1c-0.9,2.9-1.6,5.7-1.8,8.7c-0.4,4.9,0.1,9.6,1.6,14.3
			c0.1,0.3,0.2,0.5,0.2,0.8c-6.7,5.2-13.4,10.4-20.1,15.6C52.3,132.6,52.1,132.7,51.9,132.9z"/>
	</g>
	<path class="st4" d="M222.1,122.7h-33.4v41.9c0,12.6-10.2,22.8-22.8,22.8H46.7c-12.6,0-22.8-10.2-22.8-22.8V45.3
		c0-12.6,10.2-22.8,22.8-22.8h119.2c12.6,0,22.8,10.2,22.8,22.8v34.1l34.2,40.8C223.7,121.1,223.1,122.7,222.1,122.7z"/>
</g>
</svg>
