<?xml version="1.0" encoding="utf-8"?>
<!-- Generator: Adobe Illustrator 23.0.0, SVG Export Plug-In . SVG Version: 6.00 Build 0)  -->
<svg version="1.1" id="Layer_1" xmlns="http://www.w3.org/2000/svg" xmlns:xlink="http://www.w3.org/1999/xlink" x="0px" y="0px"
	 viewBox="0 0 30 30" style="enable-background:new 0 0 30 30;" xml:space="preserve">
<style type="text/css">
	.st0{fill:#FFFFFF;}
</style>
<g>
	<path class="st0" d="M13.2,15.4c0.6,0.4,1.1,1,1.8,1c0.8,0,1.2-0.6,1.8-1c2,1.3,3.9,2.6,5.9,3.9c0.2,0.1,0.2,0.2,0.1,0.4
		c-0.1,0.2-0.3,0.4-0.5,0.4c-0.1,0-0.1,0-0.2,0c-4.7,0-9.4,0-14.1,0c-0.4,0-0.6-0.1-0.7-0.4c-0.1-0.2,0-0.3,0.1-0.4
		C9.3,18,11.2,16.7,13.2,15.4z"/>
	<path class="st0" d="M22.4,9.9c-0.1,0.1-0.1,0.2-0.2,0.2c-2.1,1.8-4.3,3.6-6.4,5.3c-0.5,0.4-1,0.4-1.5,0c-2.1-1.8-4.3-3.6-6.4-5.3
		C7.8,10.1,7.7,10,7.6,9.9C12.6,9.9,17.4,9.9,22.4,9.9z"/>
	<path class="st0" d="M17.3,15c1.8-1.5,3.7-3,5.5-4.6c0,2.8,0,5.5,0,8.2C21,17.4,19.2,16.2,17.3,15z"/>
	<path class="st0" d="M12.7,15c-1.9,1.2-3.7,2.4-5.5,3.7c0-2.8,0-5.5,0-8.2C9,11.9,10.8,13.4,12.7,15z"/>
</g>
</svg>
