<?xml version="1.0" encoding="utf-8"?>
<!-- Generator: Adobe Illustrator 23.0.0, SVG Export Plug-In . SVG Version: 6.00 Build 0)  -->
<svg version="1.1" id="Layer_1" xmlns="http://www.w3.org/2000/svg" xmlns:xlink="http://www.w3.org/1999/xlink" x="0px" y="0px"
	 viewBox="0 0 30 30" style="enable-background:new 0 0 30 30;" xml:space="preserve">
<style type="text/css">
	.st0{fill:#FFFFFF;}
</style>
<path class="st0" d="M20.7,13.1c0,1.3-0.4,2.5-1.1,3.5c-1.4,1.8-2.7,3.7-4.1,5.5c-0.3,0.4-0.6,0.4-0.9,0c-1.2-1.6-2.4-3.2-3.6-4.8
	c-0.5-0.7-1-1.3-1.3-2.1C9,13.4,9.2,11.6,10.3,10c0.9-1.3,2.1-2.1,3.6-2.3c2.1-0.4,3.9,0.2,5.3,1.8C20.1,10.4,20.6,11.7,20.7,13.1z
	 M18.1,13.2c0-1.7-1.4-3.1-3.1-3.1c-1.7,0-3.1,1.4-3.1,3.1c0,1.7,1.4,3.1,3.1,3.1C16.7,16.3,18.1,14.9,18.1,13.2z"/>
</svg>
