<?xml version="1.0" encoding="utf-8"?>
<!-- Generator: Adobe Illustrator 23.0.0, SVG Export Plug-In . SVG Version: 6.00 Build 0)  -->
<svg version="1.1" id="Layer_1" xmlns="http://www.w3.org/2000/svg" xmlns:xlink="http://www.w3.org/1999/xlink" x="0px" y="0px"
	 viewBox="0 0 1049 168" style="enable-background:new 0 0 1049 168;" xml:space="preserve">
<style type="text/css">
	.st0{fill-rule:evenodd;clip-rule:evenodd;fill:#FFFFFF;}
	.st1{clip-path:url(#SVGID_2_);fill:#2D358B;}
	.st2{clip-path:url(#SVGID_2_);fill:#2E368B;}
	.st3{clip-path:url(#SVGID_2_);fill:#2F378B;}
	.st4{clip-path:url(#SVGID_2_);fill:#30388B;}
	.st5{clip-path:url(#SVGID_2_);fill:#31398B;}
	.st6{clip-path:url(#SVGID_2_);fill:#323A8B;}
	.st7{clip-path:url(#SVGID_2_);fill:#333B8C;}
	.st8{clip-path:url(#SVGID_2_);fill:#343C8C;}
	.st9{clip-path:url(#SVGID_2_);fill:#353D8C;}
	.st10{clip-path:url(#SVGID_2_);fill:#363E8C;}
	.st11{clip-path:url(#SVGID_2_);fill:#373F8C;}
	.st12{clip-path:url(#SVGID_2_);fill:#38408C;}
	.st13{clip-path:url(#SVGID_2_);fill:#39418C;}
	.st14{clip-path:url(#SVGID_2_);fill:#3A428C;}
	.st15{clip-path:url(#SVGID_2_);fill:#3B438C;}
	.st16{clip-path:url(#SVGID_2_);fill:#3C448C;}
	.st17{clip-path:url(#SVGID_2_);fill:#3D458C;}
	.st18{clip-path:url(#SVGID_2_);fill:#3E468D;}
	.st19{clip-path:url(#SVGID_2_);fill:#3F478D;}
	.st20{clip-path:url(#SVGID_2_);fill:#40488D;}
	.st21{clip-path:url(#SVGID_2_);fill:#41488D;}
	.st22{clip-path:url(#SVGID_2_);fill:#42498D;}
	.st23{clip-path:url(#SVGID_2_);fill:#434A8D;}
	.st24{clip-path:url(#SVGID_2_);fill:#444B8D;}
	.st25{clip-path:url(#SVGID_2_);fill:#454C8D;}
	.st26{clip-path:url(#SVGID_2_);fill:#464D8D;}
	.st27{clip-path:url(#SVGID_2_);fill:#474E8D;}
	.st28{clip-path:url(#SVGID_2_);fill:#484F8D;}
	.st29{clip-path:url(#SVGID_2_);fill:#49508E;}
	.st30{clip-path:url(#SVGID_2_);fill:#4A518E;}
	.st31{clip-path:url(#SVGID_2_);fill:#4B528E;}
	.st32{clip-path:url(#SVGID_2_);fill:#4C538E;}
	.st33{clip-path:url(#SVGID_2_);fill:#4D548E;}
	.st34{clip-path:url(#SVGID_2_);fill:#4E558E;}
	.st35{clip-path:url(#SVGID_2_);fill:#4F568E;}
	.st36{clip-path:url(#SVGID_2_);fill:#50578E;}
	.st37{clip-path:url(#SVGID_2_);fill:#51588E;}
	.st38{clip-path:url(#SVGID_2_);fill:#52598E;}
	.st39{clip-path:url(#SVGID_2_);fill:#535A8E;}
	.st40{clip-path:url(#SVGID_2_);fill:#555B8F;}
	.st41{clip-path:url(#SVGID_2_);fill:#565C8F;}
	.st42{clip-path:url(#SVGID_2_);fill:#575D8F;}
	.st43{clip-path:url(#SVGID_2_);fill:#585E8F;}
	.st44{clip-path:url(#SVGID_2_);fill:#595F8F;}
	.st45{clip-path:url(#SVGID_2_);fill:#5A608F;}
	.st46{clip-path:url(#SVGID_2_);fill:#5B618F;}
	.st47{clip-path:url(#SVGID_2_);fill:#5C628F;}
	.st48{clip-path:url(#SVGID_2_);fill:#5D638F;}
	.st49{clip-path:url(#SVGID_2_);fill:#5E648F;}
	.st50{clip-path:url(#SVGID_2_);fill:#5F658F;}
	.st51{clip-path:url(#SVGID_2_);fill:#606690;}
	.st52{clip-path:url(#SVGID_2_);fill:#616790;}
	.st53{clip-path:url(#SVGID_2_);fill:#626890;}
	.st54{clip-path:url(#SVGID_2_);fill:#636990;}
	.st55{clip-path:url(#SVGID_2_);fill:#646A90;}
	.st56{clip-path:url(#SVGID_2_);fill:#656B90;}
	.st57{clip-path:url(#SVGID_2_);fill:#666C90;}
	.st58{clip-path:url(#SVGID_2_);fill:#676D90;}
	.st59{clip-path:url(#SVGID_2_);fill:#686D90;}
	.st60{clip-path:url(#SVGID_2_);fill:#696E90;}
	.st61{clip-path:url(#SVGID_2_);fill:#6A6F90;}
	.st62{clip-path:url(#SVGID_2_);fill:#6B7091;}
	.st63{clip-path:url(#SVGID_2_);fill:#6C7191;}
	.st64{clip-path:url(#SVGID_2_);fill:#6D7291;}
	.st65{clip-path:url(#SVGID_2_);fill:#6E7391;}
	.st66{clip-path:url(#SVGID_2_);fill:#6F7491;}
	.st67{clip-path:url(#SVGID_2_);fill:#707591;}
	.st68{clip-path:url(#SVGID_2_);fill:#717691;}
	.st69{clip-path:url(#SVGID_2_);fill:#727791;}
	.st70{clip-path:url(#SVGID_2_);fill:#737891;}
	.st71{clip-path:url(#SVGID_2_);fill:#747991;}
	.st72{clip-path:url(#SVGID_2_);fill:#757A91;}
	.st73{clip-path:url(#SVGID_2_);fill:#767B92;}
	.st74{clip-path:url(#SVGID_2_);fill:#777C92;}
	.st75{clip-path:url(#SVGID_2_);fill:#787D92;}
	.st76{clip-path:url(#SVGID_2_);fill:#797E92;}
	.st77{clip-path:url(#SVGID_2_);fill:#7A7F92;}
	.st78{clip-path:url(#SVGID_2_);fill:#7B8092;}
	.st79{clip-path:url(#SVGID_2_);fill:#7C8192;}
	.st80{clip-path:url(#SVGID_2_);fill:#7D8292;}
	.st81{clip-path:url(#SVGID_2_);fill:#7E8392;}
	.st82{clip-path:url(#SVGID_2_);fill:#7F8491;}
	.st83{clip-path:url(#SVGID_2_);fill:#808591;}
	.st84{clip-path:url(#SVGID_2_);fill:#808691;}
	.st85{clip-path:url(#SVGID_2_);fill:#818791;}
	.st86{clip-path:url(#SVGID_2_);fill:#828891;}
	.st87{clip-path:url(#SVGID_2_);fill:#838991;}
	.st88{clip-path:url(#SVGID_2_);fill:#848A91;}
	.st89{clip-path:url(#SVGID_2_);fill:#858B90;}
	.st90{clip-path:url(#SVGID_2_);fill:#868C90;}
	.st91{clip-path:url(#SVGID_2_);fill:#878D90;}
	.st92{clip-path:url(#SVGID_2_);fill:#888E90;}
	.st93{clip-path:url(#SVGID_2_);fill:#898F90;}
	.st94{clip-path:url(#SVGID_2_);fill:#8A9090;}
	.st95{clip-path:url(#SVGID_2_);fill:#8B9190;}
	.st96{clip-path:url(#SVGID_2_);fill:#8B9290;}
	.st97{clip-path:url(#SVGID_2_);fill:#8C938F;}
	.st98{clip-path:url(#SVGID_2_);fill:#8D948F;}
	.st99{clip-path:url(#SVGID_2_);fill:#8E958F;}
	.st100{clip-path:url(#SVGID_2_);fill:#8F968F;}
	.st101{clip-path:url(#SVGID_2_);fill:#90978F;}
	.st102{clip-path:url(#SVGID_2_);fill:#91988F;}
	.st103{clip-path:url(#SVGID_2_);fill:#92998F;}
	.st104{clip-path:url(#SVGID_2_);fill:#939A8E;}
	.st105{clip-path:url(#SVGID_2_);fill:#949B8E;}
	.st106{clip-path:url(#SVGID_2_);fill:#959C8E;}
	.st107{clip-path:url(#SVGID_2_);fill:#959D8E;}
	.st108{clip-path:url(#SVGID_2_);fill:#969E8E;}
	.st109{clip-path:url(#SVGID_2_);fill:#979F8E;}
	.st110{clip-path:url(#SVGID_2_);fill:#98A08E;}
	.st111{clip-path:url(#SVGID_2_);fill:#99A18D;}
	.st112{clip-path:url(#SVGID_2_);fill:#9AA28D;}
	.st113{clip-path:url(#SVGID_2_);fill:#9BA38D;}
	.st114{clip-path:url(#SVGID_2_);fill:#9CA48D;}
	.st115{clip-path:url(#SVGID_2_);fill:#9DA58D;}
	.st116{clip-path:url(#SVGID_2_);fill:#9EA68D;}
	.st117{clip-path:url(#SVGID_2_);fill:#9FA78D;}
	.st118{clip-path:url(#SVGID_2_);fill:#A0A98D;}
	.st119{clip-path:url(#SVGID_2_);fill:#A0AA8C;}
	.st120{clip-path:url(#SVGID_2_);fill:#A1AB8C;}
	.st121{clip-path:url(#SVGID_2_);fill:#A2AC8C;}
	.st122{clip-path:url(#SVGID_2_);fill:#A3AD8C;}
	.st123{clip-path:url(#SVGID_2_);fill:#A4AE8C;}
	.st124{clip-path:url(#SVGID_2_);fill:#A5AF8C;}
	.st125{clip-path:url(#SVGID_2_);fill:#A6B08C;}
	.st126{clip-path:url(#SVGID_2_);fill:#A7B18B;}
	.st127{clip-path:url(#SVGID_2_);fill:#A8B28B;}
	.st128{clip-path:url(#SVGID_2_);fill:#A9B38B;}
	.st129{clip-path:url(#SVGID_2_);fill:#AAB48B;}
	.st130{clip-path:url(#SVGID_2_);fill:#AAB58B;}
	.st131{clip-path:url(#SVGID_2_);fill:#ABB68B;}
	.st132{clip-path:url(#SVGID_2_);fill:#ACB78B;}
	.st133{clip-path:url(#SVGID_2_);fill:#ADB88A;}
	.st134{clip-path:url(#SVGID_2_);fill:#AEB98A;}
	.st135{clip-path:url(#SVGID_2_);fill:#AFBA8A;}
	.st136{clip-path:url(#SVGID_2_);fill:#B0BB8A;}
	.st137{clip-path:url(#SVGID_2_);fill:#B1BC8A;}
	.st138{clip-path:url(#SVGID_2_);fill:#B2BD8A;}
	.st139{clip-path:url(#SVGID_2_);fill:#B3BE8A;}
	.st140{clip-path:url(#SVGID_2_);fill:#B4BF89;}
	.st141{clip-path:url(#SVGID_2_);fill:#B4C089;}
	.st142{clip-path:url(#SVGID_2_);fill:#B5C189;}
	.st143{clip-path:url(#SVGID_2_);fill:#B6C289;}
	.st144{clip-path:url(#SVGID_2_);fill:#B7C389;}
	.st145{clip-path:url(#SVGID_2_);fill:#B8C489;}
	.st146{clip-path:url(#SVGID_2_);fill:#B9C589;}
	.st147{clip-path:url(#SVGID_2_);fill:#BAC689;}
	.st148{clip-path:url(#SVGID_2_);fill:#BBC788;}
	.st149{clip-path:url(#SVGID_2_);fill:#BCC888;}
	.st150{clip-path:url(#SVGID_2_);fill:#BDC988;}
	.st151{clip-path:url(#SVGID_2_);fill:#BECA88;}
	.st152{clip-path:url(#SVGID_2_);fill:#BFCB88;}
	.st153{clip-path:url(#SVGID_2_);fill:#BFCC88;}
	.st154{clip-path:url(#SVGID_2_);fill:#C0CD88;}
	.st155{clip-path:url(#SVGID_2_);fill:#C1CE87;}
	.st156{clip-path:url(#SVGID_2_);fill:#C2CF87;}
	.st157{clip-path:url(#SVGID_2_);fill:#C3D087;}
	.st158{clip-path:url(#SVGID_2_);fill:#C4D187;}
	.st159{clip-path:url(#SVGID_2_);fill:#C5D287;}
	.st160{clip-path:url(#SVGID_2_);fill:#C6D387;}
	.st161{clip-path:url(#SVGID_2_);fill:#C7D486;}
	.st162{clip-path:url(#SVGID_2_);fill:#C7D586;}
	.st163{clip-path:url(#SVGID_2_);fill:#C8D686;}
	.st164{clip-path:url(#SVGID_2_);fill:#C9D886;}
	.st165{clip-path:url(#SVGID_2_);fill:#CAD985;}
	.st166{clip-path:url(#SVGID_2_);fill:#CBDA85;}
	.st167{clip-path:url(#SVGID_2_);fill:#CCDB85;}
	.st168{clip-path:url(#SVGID_2_);fill:#CCDC85;}
	.st169{clip-path:url(#SVGID_2_);fill:#CDDD84;}
	.st170{clip-path:url(#SVGID_2_);fill:#CEDE84;}
	.st171{fill-rule:evenodd;clip-rule:evenodd;fill:#2D358B;}
	.st172{fill-rule:evenodd;clip-rule:evenodd;}
	.st173{fill-rule:evenodd;clip-rule:evenodd;fill:#A1C93A;}
	.st174{fill-rule:evenodd;clip-rule:evenodd;fill:#221F1F;}
	.st175{fill:#2D358B;}
	.st176{fill:#414141;}
</style>
<g>
	<g>
		<g>
			<g>
				<g>
					<polygon class="st0" points="141.2,159 193.5,82.2 245.7,5.4 141.2,5.4 36.7,5.4 88.9,82.2 					"/>
				</g>
				<g>
					<g>
						<defs>
							<path id="SVGID_1_" d="M196.8,5.9l-10.3,15.2c12.9,4.7,24.1,11.3,32.5,19.6l0,0c-14.8,14.5-38.1,24-63.9,26.6l0,0l-14.5,21.3
								L126,67.1C100.8,64.4,78,55,63.4,40.8l0,0c8.2-8.2,19.1-14.8,31.5-19.4l0,0L84.4,5.9H37.2v0.2l51.8,76l52.3,76.8l52.3-76.8
								l51.9-76.3H196.8z"/>
						</defs>
						<clipPath id="SVGID_2_">
							<use xlink:href="#SVGID_1_"  style="overflow:visible;"/>
						</clipPath>
						<rect x="37.2" y="5.9" class="st1" width="208.2" height="153.1"/>
						<path class="st1" d="M231.2,155.9c0,1.6,0,3.2-0.1,4.7v-1.1H47.3v1.1c-0.1-1.6-0.1-3.1-0.1-4.7c0-50.8,41.2-92.1,92-92.1
							S231.2,105.1,231.2,155.9z"/>
						<path class="st2" d="M230.9,155.9c0,1.6,0,3.2-0.1,4.7v-1.1H47.6v1.1c-0.1-1.6-0.1-3.1-0.1-4.7c0-50.6,41-91.7,91.7-91.7
							S230.9,105.3,230.9,155.9z"/>
						<path class="st3" d="M230.5,155.9c0,1.6,0,3.1-0.1,4.7v-1.1H48v1.1c-0.1-1.6-0.1-3.1-0.1-4.7c0-50.4,40.9-91.3,91.3-91.3
							S230.5,105.5,230.5,155.9z"/>
						<path class="st4" d="M230.1,155.9c0,1.6,0,3.1-0.1,4.7v-1.1H48.4v1.1c-0.1-1.5-0.1-3.1-0.1-4.7C48.3,105.7,89,65,139.2,65
							C189.4,65,230.1,105.7,230.1,155.9z"/>
						<path class="st5" d="M229.7,155.9c0,1.6,0,3.1-0.1,4.7v-1H48.8v1c-0.1-1.5-0.1-3.1-0.1-4.7c0-50,40.5-90.5,90.5-90.5
							C189.2,65.4,229.7,105.9,229.7,155.9z"/>
						<path class="st6" d="M229.4,155.9c0,1.6,0,3.1-0.1,4.6v-1H49.2v1c-0.1-1.5-0.1-3.1-0.1-4.6c0-49.8,40.4-90.2,90.2-90.2
							C189,65.8,229.4,106.1,229.4,155.9z"/>
						<path class="st7" d="M229,155.9c0,1.5,0,3.1-0.1,4.6v-1H49.5v1c-0.1-1.5-0.1-3.1-0.1-4.6c0-49.6,40.2-89.8,89.8-89.8
							S229,106.3,229,155.9z"/>
						<path class="st8" d="M228.6,155.9c0,1.5,0,3.1-0.1,4.6v-1H49.9v1c-0.1-1.5-0.1-3.1-0.1-4.6c0-49.4,40-89.4,89.4-89.4
							C188.6,66.5,228.6,106.5,228.6,155.9z"/>
						<path class="st9" d="M228.2,155.9c0,1.5,0,3.1-0.1,4.6v-1H50.3v1c-0.1-1.5-0.1-3-0.1-4.6c0-49.2,39.9-89,89-89
							C188.4,66.9,228.2,106.7,228.2,155.9z"/>
						<path class="st10" d="M227.8,155.9c0,1.5,0,3.1-0.1,4.6v-0.9H50.7v0.9c-0.1-1.5-0.1-3-0.1-4.6c0-49,39.7-88.7,88.7-88.7
							S227.8,107,227.8,155.9z"/>
						<path class="st11" d="M227.5,155.9c0,1.5,0,3-0.1,4.5v-0.9H51v0.9c-0.1-1.5-0.1-3-0.1-4.5c0-48.8,39.5-88.3,88.3-88.3
							S227.5,107.2,227.5,155.9z"/>
						<path class="st12" d="M227.1,155.9c0,1.5,0,3-0.1,4.5v-0.9H51.4v0.9c-0.1-1.5-0.1-3-0.1-4.5c0-48.5,39.4-87.9,87.9-87.9
							C187.7,68,227.1,107.4,227.1,155.9z"/>
						<path class="st13" d="M226.7,155.9c0,1.5,0,3-0.1,4.5v-0.9H51.8v0.9c-0.1-1.5-0.1-3-0.1-4.5c0-48.3,39.2-87.5,87.5-87.5
							C187.5,68.4,226.7,107.6,226.7,155.9z"/>
						<path class="st14" d="M226.3,155.9c0,1.5,0,3-0.1,4.5v-0.9H52.2v0.9c-0.1-1.5-0.1-3-0.1-4.5c0-48.1,39-87.1,87.1-87.1
							S226.3,107.8,226.3,155.9z"/>
						<path class="st15" d="M226,155.9c0,1.5,0,3-0.1,4.5v-0.8H52.5v0.8c-0.1-1.5-0.1-3-0.1-4.5c0-47.9,38.8-86.8,86.8-86.8
							C187.1,69.2,226,108,226,155.9z"/>
						<path class="st16" d="M225.6,155.9c0,1.5,0,3-0.1,4.4v-0.8H52.9v0.8c-0.1-1.5-0.1-3-0.1-4.4c0-47.7,38.7-86.4,86.4-86.4
							S225.6,108.2,225.6,155.9z"/>
						<path class="st17" d="M225.2,155.9c0,1.5,0,3-0.1,4.4v-0.8H53.3v0.8c-0.1-1.5-0.1-2.9-0.1-4.4c0-47.5,38.5-86,86-86
							C186.7,69.9,225.2,108.4,225.2,155.9z"/>
						<path class="st18" d="M224.8,155.9c0,1.5,0,2.9-0.1,4.4v-0.8h-171v0.8c-0.1-1.5-0.1-2.9-0.1-4.4c0-47.3,38.3-85.6,85.6-85.6
							S224.8,108.6,224.8,155.9z"/>
						<path class="st19" d="M224.4,155.9c0,1.5,0,2.9-0.1,4.4v-0.8H54.1v0.8c-0.1-1.5-0.1-2.9-0.1-4.4c0-47.1,38.2-85.3,85.3-85.3
							C186.3,70.7,224.4,108.8,224.4,155.9z"/>
						<path class="st20" d="M224.1,155.9c0,1.5,0,2.9-0.1,4.4v-0.7H54.4v0.7c-0.1-1.4-0.1-2.9-0.1-4.4c0-46.9,38-84.9,84.9-84.9
							S224.1,109,224.1,155.9z"/>
						<path class="st21" d="M223.7,155.9c0,1.5,0,2.9-0.1,4.3v-0.7H54.8v0.7c-0.1-1.4-0.1-2.9-0.1-4.3c0-46.7,37.8-84.5,84.5-84.5
							S223.7,109.3,223.7,155.9z"/>
						<path class="st22" d="M223.3,155.9c0,1.5,0,2.9-0.1,4.3v-0.7h-168v0.7c-0.1-1.4-0.1-2.9-0.1-4.3c0-46.5,37.7-84.1,84.1-84.1
							C185.7,71.8,223.3,109.5,223.3,155.9z"/>
						<path class="st23" d="M222.9,155.9c0,1.4,0,2.9-0.1,4.3v-0.7H55.6v0.7c-0.1-1.4-0.1-2.9-0.1-4.3c0-46.2,37.5-83.7,83.7-83.7
							C185.4,72.2,222.9,109.7,222.9,155.9z"/>
						<path class="st24" d="M222.6,155.9c0,1.4,0,2.9-0.1,4.3v-0.7H55.9v0.7c-0.1-1.4-0.1-2.9-0.1-4.3c0-46,37.3-83.4,83.4-83.4
							S222.6,109.9,222.6,155.9z"/>
						<path class="st25" d="M222.2,155.9c0,1.4,0,2.9-0.1,4.3v-0.6H56.3v0.6c-0.1-1.4-0.1-2.8-0.1-4.3c0-45.8,37.2-83,83-83
							C185,72.9,222.2,110.1,222.2,155.9z"/>
						<path class="st26" d="M221.8,155.9c0,1.4,0,2.8-0.1,4.3v-0.6h-165v0.6c-0.1-1.4-0.1-2.8-0.1-4.3c0-45.6,37-82.6,82.6-82.6
							S221.8,110.3,221.8,155.9z"/>
						<path class="st27" d="M221.4,155.9c0,1.4,0,2.8-0.1,4.2v-0.6H57.1v0.6c-0.1-1.4-0.1-2.8-0.1-4.2c0-45.4,36.8-82.2,82.2-82.2
							C184.6,73.7,221.4,110.5,221.4,155.9z"/>
						<path class="st28" d="M221,155.9c0,1.4,0,2.8-0.1,4.2v-0.6H57.4v0.6c-0.1-1.4-0.1-2.8-0.1-4.2c0-45.2,36.6-81.9,81.9-81.9
							S221,110.7,221,155.9z"/>
						<path class="st29" d="M220.7,155.9c0,1.4,0,2.8-0.1,4.2v-0.6H57.8v0.6c-0.1-1.4-0.1-2.8-0.1-4.2c0-45,36.5-81.5,81.5-81.5
							C184.2,74.4,220.7,110.9,220.7,155.9z"/>
						<path class="st30" d="M220.3,155.9c0,1.4,0,2.8-0.1,4.2v-0.5h-162v0.5c-0.1-1.4-0.1-2.8-0.1-4.2c0-44.8,36.3-81.1,81.1-81.1
							C184,74.8,220.3,111.1,220.3,155.9z"/>
						<path class="st31" d="M219.9,155.9c0,1.4,0,2.8-0.1,4.2v-0.5H58.6v0.5c-0.1-1.4-0.1-2.8-0.1-4.2c0-44.6,36.1-80.7,80.7-80.7
							C183.8,75.2,219.9,111.3,219.9,155.9z"/>
						<path class="st32" d="M219.5,155.9c0,1.4,0,2.8-0.1,4.1v-0.5H59v0.5c-0.1-1.4-0.1-2.7-0.1-4.1c0-44.4,36-80.3,80.3-80.3
							C183.6,75.6,219.5,111.5,219.5,155.9z"/>
						<path class="st33" d="M219.2,155.9c0,1.4,0,2.8-0.1,4.1v-0.5H59.3v0.5c-0.1-1.4-0.1-2.7-0.1-4.1c0-44.2,35.8-80,80-80
							C183.4,76,219.2,111.8,219.2,155.9z"/>
						<path class="st34" d="M218.8,155.9c0,1.4,0,2.7-0.1,4.1v-0.5h-159v0.5c-0.1-1.4-0.1-2.7-0.1-4.1c0-44,35.6-79.6,79.6-79.6
							S218.8,112,218.8,155.9z"/>
						<path class="st35" d="M218.4,155.9c0,1.4,0,2.7-0.1,4.1v-0.5H60.1v0.5c-0.1-1.4-0.1-2.7-0.1-4.1c0-43.7,35.5-79.2,79.2-79.2
							S218.4,112.2,218.4,155.9z"/>
						<path class="st36" d="M218,155.9c0,1.4,0,2.7-0.1,4.1v-0.4H60.5v0.4c-0.1-1.3-0.1-2.7-0.1-4.1c0-43.5,35.3-78.8,78.8-78.8
							C182.7,77.1,218,112.4,218,155.9z"/>
						<path class="st37" d="M217.7,155.9c0,1.4,0,2.7-0.1,4v-0.4H60.8v0.4c-0.1-1.3-0.1-2.7-0.1-4c0-43.3,35.1-78.5,78.5-78.5
							C182.5,77.5,217.7,112.6,217.7,155.9z"/>
						<path class="st38" d="M217.3,155.9c0,1.3,0,2.7-0.1,4v-0.4h-156v0.4c-0.1-1.3-0.1-2.7-0.1-4c0-43.1,35-78.1,78.1-78.1
							S217.3,112.8,217.3,155.9z"/>
						<path class="st39" d="M216.9,155.9c0,1.3,0,2.7-0.1,4v-0.4H61.6v0.4c-0.1-1.3-0.1-2.7-0.1-4c0-42.9,34.8-77.7,77.7-77.7
							C182.1,78.2,216.9,113,216.9,155.9z"/>
						<path class="st40" d="M216.5,155.9c0,1.3,0,2.7-0.1,4v-0.4H62v0.4c-0.1-1.3-0.1-2.6-0.1-4c0-42.7,34.6-77.3,77.3-77.3
							S216.5,113.2,216.5,155.9z"/>
						<path class="st41" d="M216.1,155.9c0,1.3,0,2.6-0.1,4v-0.3H62.4v0.3c-0.1-1.3-0.1-2.6-0.1-4c0-42.5,34.4-76.9,76.9-76.9
							C181.7,79,216.1,113.4,216.1,155.9z"/>
						<path class="st42" d="M215.8,155.9c0,1.3,0,2.6-0.1,3.9v-0.3H62.7v0.3c-0.1-1.3-0.1-2.6-0.1-3.9c0-42.3,34.3-76.6,76.6-76.6
							S215.8,113.6,215.8,155.9z"/>
						<path class="st43" d="M215.4,155.9c0,1.3,0,2.6-0.1,3.9v-0.3H63.1v0.3c-0.1-1.3-0.1-2.6-0.1-3.9c0-42.1,34.1-76.2,76.2-76.2
							C181.3,79.7,215.4,113.8,215.4,155.9z"/>
						<path class="st44" d="M215,155.9c0,1.3,0,2.6-0.1,3.9v-0.3H63.5v0.3c-0.1-1.3-0.1-2.6-0.1-3.9c0-41.9,33.9-75.8,75.8-75.8
							C181.1,80.1,215,114.1,215,155.9z"/>
						<path class="st45" d="M214.6,155.9c0,1.3,0,2.6-0.1,3.9v-0.3H63.9v0.3c-0.1-1.3-0.1-2.6-0.1-3.9c0-41.7,33.8-75.4,75.4-75.4
							S214.6,114.3,214.6,155.9z"/>
						<path class="st46" d="M214.3,155.9c0,1.3,0,2.6-0.1,3.9v-0.2H64.2v0.2c-0.1-1.3-0.1-2.6-0.1-3.9c0-41.5,33.6-75.1,75.1-75.1
							C180.6,80.9,214.3,114.5,214.3,155.9z"/>
						<path class="st47" d="M213.9,155.9c0,1.3,0,2.6-0.1,3.8v-0.2H64.6v0.2c-0.1-1.3-0.1-2.6-0.1-3.8c0-41.2,33.4-74.7,74.7-74.7
							C180.4,81.2,213.9,114.7,213.9,155.9z"/>
						<path class="st48" d="M213.5,155.9c0,1.3,0,2.6-0.1,3.8v-0.2H65v0.2c-0.1-1.3-0.1-2.5-0.1-3.8c0-41,33.3-74.3,74.3-74.3
							S213.5,114.9,213.5,155.9z"/>
						<path class="st49" d="M213.1,155.9c0,2.6-0.1,5.1-0.4,7.6v-3.9H65.7v3.9c-0.3-2.5-0.4-5-0.4-7.6c0-40.8,33.1-73.9,73.9-73.9
							C180,82,213.1,115.1,213.1,155.9z"/>
						<path class="st50" d="M212.7,155.9c0,2.5-0.1,5-0.4,7.5v-3.9H66v3.9c-0.3-2.5-0.4-5-0.4-7.5c0-40.6,32.9-73.5,73.5-73.5
							S212.7,115.3,212.7,155.9z"/>
						<path class="st51" d="M212.4,155.9c0,2.5-0.1,5-0.4,7.5v-3.9H66.4v3.9c-0.3-2.5-0.4-5-0.4-7.5c0-40.4,32.8-73.2,73.2-73.2
							C179.6,82.8,212.4,115.5,212.4,155.9z"/>
						<path class="st52" d="M212,155.9c0,2.5-0.1,5-0.4,7.4v-3.8H66.8v3.8c-0.2-2.4-0.4-4.9-0.4-7.4c0-40.2,32.6-72.8,72.8-72.8
							S212,115.7,212,155.9z"/>
						<path class="st53" d="M211.6,155.9c0,2.5-0.1,5-0.4,7.4v-3.8H67.2v3.8c-0.2-2.4-0.4-4.9-0.4-7.4c0-40,32.4-72.4,72.4-72.4
							C179.2,83.5,211.6,115.9,211.6,155.9z"/>
						<path class="st54" d="M211.2,155.9c0,2.5-0.1,4.9-0.4,7.4v-3.7H67.5v3.7c-0.2-2.4-0.4-4.9-0.4-7.4c0-39.8,32.2-72,72-72
							C179,83.9,211.2,116.1,211.2,155.9z"/>
						<path class="st55" d="M210.9,155.9c0,2.5-0.1,4.9-0.4,7.3v-3.7H67.9v3.7c-0.2-2.4-0.4-4.9-0.4-7.3c0-39.6,32.1-71.7,71.7-71.7
							C178.8,84.3,210.9,116.3,210.9,155.9z"/>
						<path class="st56" d="M210.5,155.9c0,2.5-0.1,4.9-0.4,7.3v-3.7H68.3v3.7c-0.2-2.4-0.4-4.8-0.4-7.3c0-39.4,31.9-71.3,71.3-71.3
							S210.5,116.6,210.5,155.9z"/>
						<path class="st57" d="M210.1,155.9c0,2.4-0.1,4.9-0.4,7.2v-3.6H68.7v3.6c-0.2-2.4-0.4-4.8-0.4-7.2c0-39.2,31.7-70.9,70.9-70.9
							C178.4,85,210.1,116.8,210.1,155.9z"/>
						<path class="st58" d="M209.7,155.9c0,2.4-0.1,4.8-0.4,7.2v-3.6H69v3.6c-0.2-2.4-0.4-4.8-0.4-7.2c0-39,31.6-70.5,70.5-70.5
							S209.7,117,209.7,155.9z"/>
						<path class="st59" d="M209.3,155.9c0,2.4-0.1,4.8-0.4,7.2v-3.5H69.4v3.5c-0.2-2.4-0.4-4.7-0.4-7.2c0-38.7,31.4-70.1,70.1-70.1
							S209.3,117.2,209.3,155.9z"/>
						<path class="st60" d="M209,155.9c0,2.4-0.1,4.8-0.4,7.1v-3.5H69.8v3.5c-0.2-2.3-0.4-4.7-0.4-7.1c0-38.5,31.2-69.8,69.8-69.8
							C177.7,86.2,209,117.4,209,155.9z"/>
						<path class="st61" d="M208.6,155.9c0,2.4-0.1,4.8-0.4,7.1v-3.5H70.2v3.5c-0.2-2.3-0.4-4.7-0.4-7.1c0-38.3,31.1-69.4,69.4-69.4
							C177.5,86.5,208.6,117.6,208.6,155.9z"/>
						<path class="st62" d="M208.2,155.9c0,2.4-0.1,4.7-0.4,7.1v-3.4H70.5v3.4c-0.2-2.3-0.4-4.7-0.4-7.1c0-38.1,30.9-69,69-69
							S208.2,117.8,208.2,155.9z"/>
						<path class="st63" d="M207.8,155.9c0,2.4-0.1,4.7-0.4,7v-3.4H70.9v3.4c-0.2-2.3-0.4-4.6-0.4-7c0-37.9,30.7-68.6,68.6-68.6
							S207.8,118,207.8,155.9z"/>
						<path class="st64" d="M207.5,155.9c0,2.4-0.1,4.7-0.4,7v-3.4H71.3v3.4c-0.2-2.3-0.4-4.6-0.4-7c0-37.7,30.6-68.3,68.3-68.3
							S207.5,118.2,207.5,155.9z"/>
						<path class="st65" d="M207.1,155.9c0,2.3-0.1,4.7-0.3,6.9v-3.3H71.7v3.3c-0.2-2.3-0.4-4.6-0.4-6.9c0-37.5,30.4-67.9,67.9-67.9
							C176.7,88,207.1,118.4,207.1,155.9z"/>
						<path class="st66" d="M206.7,155.9c0,2.3-0.1,4.6-0.4,6.9v-3.3H72v3.3c-0.2-2.3-0.4-4.6-0.4-6.9c0-37.3,30.2-67.5,67.5-67.5
							S206.7,118.6,206.7,155.9z"/>
						<path class="st67" d="M206.3,155.9c0,2.3-0.1,4.6-0.3,6.9v-3.2H72.4v3.2c-0.2-2.3-0.3-4.5-0.3-6.9c0-37.1,30.1-67.1,67.1-67.1
							C176.3,88.8,206.3,118.8,206.3,155.9z"/>
						<path class="st68" d="M205.9,155.9c0,2.3-0.1,4.6-0.3,6.8v-3.2H72.8v3.2c-0.2-2.2-0.3-4.5-0.3-6.8c0-36.9,29.9-66.7,66.7-66.7
							S205.9,119.1,205.9,155.9z"/>
						<path class="st69" d="M205.6,155.9c0,2.3-0.1,4.6-0.3,6.8v-3.2H73.2v3.2c-0.2-2.2-0.3-4.5-0.3-6.8c0-36.7,29.7-66.4,66.4-66.4
							S205.6,119.3,205.6,155.9z"/>
						<path class="st70" d="M205.2,155.9c0,2.3-0.1,4.5-0.3,6.7v-3.1H73.5v3.1c-0.2-2.2-0.3-4.5-0.3-6.7c0-36.4,29.5-66,66-66
							C175.6,89.9,205.2,119.5,205.2,155.9z"/>
						<path class="st71" d="M204.8,155.9c0,2.3-0.1,4.5-0.3,6.7v-3.1H73.9v3.1c-0.2-2.2-0.3-4.4-0.3-6.7c0-36.2,29.4-65.6,65.6-65.6
							C175.4,90.3,204.8,119.7,204.8,155.9z"/>
						<path class="st72" d="M204.4,155.9c0,2.3-0.1,4.5-0.3,6.7v-3H74.3v3c-0.2-2.2-0.3-4.4-0.3-6.7c0-36,29.2-65.2,65.2-65.2
							S204.4,119.9,204.4,155.9z"/>
						<path class="st73" d="M204.1,155.9c0,2.2-0.1,4.5-0.3,6.6v-3H74.7v3c-0.2-2.2-0.3-4.4-0.3-6.6c0-35.8,29-64.9,64.9-64.9
							S204.1,120.1,204.1,155.9z"/>
						<path class="st74" d="M203.7,155.9c0,2.2-0.1,4.4-0.3,6.6v-3H75v3c-0.2-2.2-0.3-4.4-0.3-6.6c0-35.6,28.9-64.5,64.5-64.5
							S203.7,120.3,203.7,155.9z"/>
						<path class="st75" d="M203.3,155.9c0,2.2-0.1,4.4-0.3,6.6v-2.9H75.4v2.9c-0.2-2.2-0.3-4.3-0.3-6.6c0-35.4,28.7-64.1,64.1-64.1
							C174.6,91.8,203.3,120.5,203.3,155.9z"/>
						<path class="st76" d="M202.9,155.9c0,2.2-0.1,4.4-0.3,6.5v-2.9H75.8v2.9c-0.2-2.1-0.3-4.3-0.3-6.5c0-35.2,28.5-63.7,63.7-63.7
							C174.4,92.2,202.9,120.7,202.9,155.9z"/>
						<path class="st77" d="M202.5,155.9c0,2.2-0.1,4.3-0.3,6.5v-2.9h-126v2.9c-0.2-2.1-0.3-4.3-0.3-6.5c0-35,28.4-63.3,63.3-63.3
							S202.5,120.9,202.5,155.9z"/>
						<path class="st78" d="M202.2,155.9c0,2.2-0.1,4.3-0.3,6.4v-2.8H76.6v2.8c-0.2-2.1-0.3-4.3-0.3-6.4c0-34.8,28.2-63,63-63
							S202.2,121.1,202.2,155.9z"/>
						<path class="st78" d="M201.8,155.9c0,2.2-0.1,4.3-0.3,6.4v-2.8H76.9v2.8c-0.2-2.1-0.3-4.2-0.3-6.4c0-34.6,28-62.6,62.6-62.6
							S201.8,121.4,201.8,155.9z"/>
						<path class="st79" d="M201.4,155.9c0,2.1-0.1,4.3-0.3,6.4v-2.7H77.3v2.7c-0.2-2.1-0.3-4.2-0.3-6.4c0-34.4,27.9-62.2,62.2-62.2
							C173.6,93.7,201.4,121.6,201.4,155.9z"/>
						<path class="st80" d="M201,155.9c0,2.1-0.1,4.2-0.3,6.3v-2.7h-123v2.7c-0.2-2.1-0.3-4.2-0.3-6.3c0-34.2,27.7-61.8,61.8-61.8
							S201,121.8,201,155.9z"/>
						<path class="st81" d="M200.7,155.9c0,2.1-0.1,4.2-0.3,6.3v-2.7H78v2.7c-0.2-2.1-0.3-4.2-0.3-6.3c0-33.9,27.5-61.5,61.5-61.5
							C173.1,94.5,200.7,122,200.7,155.9z"/>
						<path class="st82" d="M200.3,155.9c0,2.1-0.1,4.2-0.3,6.2v-2.6H78.4v2.6c-0.2-2.1-0.3-4.1-0.3-6.2c0-33.7,27.4-61.1,61.1-61.1
							C172.9,94.8,200.3,122.2,200.3,155.9z"/>
						<path class="st83" d="M199.9,155.9c0,2.1-0.1,4.2-0.3,6.2v-2.6H78.8v2.6c-0.2-2-0.3-4.1-0.3-6.2c0-33.5,27.2-60.7,60.7-60.7
							C172.7,95.2,199.9,122.4,199.9,155.9z"/>
						<path class="st84" d="M199.5,155.9c0,2.1-0.1,4.1-0.3,6.2v-2.5H79.2v2.5c-0.2-2-0.3-4.1-0.3-6.2c0-33.3,27-60.3,60.3-60.3
							S199.5,122.6,199.5,155.9z"/>
						<path class="st85" d="M199.2,155.9c0,2.1-0.1,4.1-0.3,6.1v-2.5H79.5v2.5c-0.2-2-0.3-4.1-0.3-6.1c0-33.1,26.9-60,60-60
							S199.2,122.8,199.2,155.9z"/>
						<path class="st86" d="M198.8,155.9c0,2.1-0.1,4.1-0.3,6.1v-2.5H79.9v2.5c-0.2-2-0.3-4-0.3-6.1c0-32.9,26.7-59.6,59.6-59.6
							S198.8,123,198.8,155.9z"/>
						<path class="st87" d="M198.4,155.9c0,2-0.1,4.1-0.3,6.1v-2.4H80.3v2.4c-0.2-2-0.3-4-0.3-6.1c0-32.7,26.5-59.2,59.2-59.2
							C171.9,96.7,198.4,123.2,198.4,155.9z"/>
						<path class="st88" d="M198,155.9c0,2-0.1,4-0.3,6v-2.4H80.7v2.4c-0.2-2-0.3-4-0.3-6c0-32.5,26.3-58.8,58.8-58.8
							C171.7,97.1,198,123.4,198,155.9z"/>
						<path class="st89" d="M197.7,155.9c0,2-0.1,4-0.3,6v-2.4H81v2.4c-0.2-2-0.3-4-0.3-6c0-32.3,26.2-58.5,58.5-58.5
							S197.7,123.6,197.7,155.9z"/>
						<path class="st90" d="M197.3,155.9c0,2-0.1,4-0.3,5.9v-2.3H81.4v2.3c-0.2-2-0.3-3.9-0.3-5.9c0-32.1,26-58.1,58.1-58.1
							S197.3,123.8,197.3,155.9z"/>
						<path class="st91" d="M196.9,155.9c0,2-0.1,4-0.3,5.9v-2.3H81.8v2.3c-0.2-1.9-0.3-3.9-0.3-5.9c0-31.9,25.8-57.7,57.7-57.7
							S196.9,124,196.9,155.9z"/>
						<path class="st92" d="M196.5,155.9c0,2-0.1,3.9-0.3,5.9v-2.2H82.1v2.2c-0.2-1.9-0.3-3.9-0.3-5.9c0-31.7,25.7-57.3,57.3-57.3
							S196.5,124.3,196.5,155.9z"/>
						<path class="st93" d="M196.2,155.9c0,2-0.1,3.9-0.3,5.8v-2.2H82.5v2.2c-0.2-1.9-0.3-3.9-0.3-5.8c0-31.5,25.5-57,57-57
							C170.7,99,196.2,124.5,196.2,155.9z"/>
						<path class="st94" d="M195.8,155.9c0,2-0.1,3.9-0.3,5.8v-2.2H82.9v2.2c-0.2-1.9-0.3-3.8-0.3-5.8c0-31.3,25.3-56.6,56.6-56.6
							S195.8,124.7,195.8,155.9z"/>
						<path class="st95" d="M195.4,155.9c0,1.9-0.1,3.9-0.3,5.7v-2.1H83.3v2.1c-0.2-1.9-0.3-3.8-0.3-5.7c0-31,25.2-56.2,56.2-56.2
							S195.4,124.9,195.4,155.9z"/>
						<path class="st96" d="M195,155.9c0,1.9-0.1,3.8-0.3,5.7v-2.1H83.6v2.1c-0.2-1.9-0.3-3.8-0.3-5.7c0-30.8,25-55.8,55.8-55.8
							C170,100.1,195,125.1,195,155.9z"/>
						<path class="st97" d="M194.7,155.9c0,1.9-0.1,3.8-0.3,5.7v-2H84v2c-0.2-1.9-0.3-3.8-0.3-5.7c0-30.6,24.8-55.5,55.5-55.5
							C169.8,100.5,194.7,125.3,194.7,155.9z"/>
						<path class="st98" d="M194.3,155.9c0,1.9-0.1,3.8-0.3,5.6v-2H84.4v2c-0.2-1.9-0.3-3.7-0.3-5.6c0-30.4,24.7-55.1,55.1-55.1
							C169.6,100.8,194.3,125.5,194.3,155.9z"/>
						<path class="st99" d="M193.9,155.9c0,1.9-0.1,3.8-0.3,5.6v-2H84.8v2c-0.2-1.8-0.3-3.7-0.3-5.6c0-30.2,24.5-54.7,54.7-54.7
							C169.4,101.2,193.9,125.7,193.9,155.9z"/>
						<path class="st100" d="M193.5,155.9c0,1.9-0.1,3.7-0.3,5.6v-1.9H85.1v1.9c-0.2-1.8-0.3-3.7-0.3-5.6c0-30,24.3-54.3,54.3-54.3
							C169.2,101.6,193.5,125.9,193.5,155.9z"/>
						<path class="st101" d="M193.2,155.9c0,1.9-0.1,3.7-0.3,5.5v-1.9H85.5v1.9c-0.2-1.8-0.3-3.7-0.3-5.5c0-29.8,24.2-54,54-54
							S193.2,126.1,193.2,155.9z"/>
						<path class="st102" d="M192.8,155.9c0,1.9-0.1,3.7-0.3,5.5v-1.9H85.9v1.9c-0.2-1.8-0.3-3.6-0.3-5.5c0-29.6,24-53.6,53.6-53.6
							S192.8,126.3,192.8,155.9z"/>
						<path class="st103" d="M192.4,155.9c0,1.8-0.1,3.7-0.3,5.4v-1.8H86.3v1.8c-0.2-1.8-0.3-3.6-0.3-5.4
							c0-29.4,23.8-53.2,53.2-53.2C168.6,102.7,192.4,126.5,192.4,155.9z"/>
						<path class="st104" d="M192,155.9c0,1.8-0.1,3.6-0.3,5.4v-1.8H86.6v1.8c-0.2-1.8-0.3-3.6-0.3-5.4c0-29.2,23.7-52.8,52.8-52.8
							C168.4,103.1,192,126.7,192,155.9z"/>
						<path class="st105" d="M191.7,155.9c0,1.8-0.1,3.6-0.3,5.4v-1.7H87v1.7c-0.2-1.8-0.3-3.6-0.3-5.4c0-29,23.5-52.5,52.5-52.5
							C168.2,103.5,191.7,126.9,191.7,155.9z"/>
						<path class="st106" d="M191.3,155.9c0,1.8-0.1,3.6-0.3,5.3v-1.7H87.4v1.7c-0.2-1.8-0.3-3.5-0.3-5.3
							c0-28.8,23.3-52.1,52.1-52.1S191.3,127.1,191.3,155.9z"/>
						<path class="st107" d="M190.9,155.9c0,1.8-0.1,3.5-0.3,5.3v-1.7H87.7v1.7c-0.2-1.7-0.3-3.5-0.3-5.3
							c0-28.6,23.2-51.7,51.7-51.7C167.8,104.2,190.9,127.4,190.9,155.9z"/>
						<path class="st108" d="M190.5,155.9c0,1.8-0.1,3.5-0.3,5.2v-1.6H88.1v1.6c-0.2-1.7-0.3-3.5-0.3-5.2c0-28.4,23-51.3,51.3-51.3
							C167.6,104.6,190.5,127.6,190.5,155.9z"/>
						<path class="st109" d="M190.2,155.9c0,1.8-0.1,3.5-0.3,5.2v-1.6H88.5v1.6c-0.2-1.7-0.3-3.5-0.3-5.2c0-28.1,22.8-51,51-51
							S190.2,127.8,190.2,155.9z"/>
						<path class="st110" d="M189.8,155.9c0,1.7-0.1,3.5-0.3,5.2v-1.5H88.9v1.5c-0.2-1.7-0.3-3.4-0.3-5.2
							c0-27.9,22.7-50.6,50.6-50.6C167.1,105.3,189.8,128,189.8,155.9z"/>
						<path class="st111" d="M189.4,155.9c0,1.7-0.1,3.4-0.3,5.1v-1.5H89.2v1.5c-0.2-1.7-0.3-3.4-0.3-5.1
							c0-27.7,22.5-50.2,50.2-50.2S189.4,128.2,189.4,155.9z"/>
						<path class="st112" d="M189,155.9c0,1.7-0.1,3.4-0.3,5.1v-1.5H89.6v1.5c-0.2-1.7-0.3-3.4-0.3-5.1c0-27.5,22.3-49.8,49.8-49.8
							S189,128.4,189,155.9z"/>
						<path class="st113" d="M188.7,155.9c0,1.7-0.1,3.4-0.3,5.1v-1.4H90v1.4c-0.2-1.7-0.3-3.4-0.3-5.1c0-27.3,22.1-49.5,49.5-49.5
							C166.5,106.5,188.7,128.6,188.7,155.9z"/>
						<path class="st114" d="M188.3,155.9c0,1.7-0.1,3.4-0.3,5v-1.4H90.4v1.4c-0.2-1.6-0.3-3.3-0.3-5c0-27.1,22-49.1,49.1-49.1
							C166.3,106.8,188.3,128.8,188.3,155.9z"/>
						<path class="st115" d="M187.9,155.9c0,1.7-0.1,3.3-0.3,5v-1.4H90.7v1.4c-0.2-1.6-0.2-3.3-0.2-5c0-26.9,21.8-48.7,48.7-48.7
							S187.9,129,187.9,155.9z"/>
						<path class="st116" d="M187.5,155.9c0,1.7-0.1,3.3-0.2,4.9v-1.3H91.1v1.3c-0.2-1.6-0.2-3.3-0.2-4.9
							c0-26.7,21.6-48.3,48.3-48.3C165.9,107.6,187.5,129.2,187.5,155.9z"/>
						<path class="st117" d="M187.2,155.9c0,1.7-0.1,3.3-0.2,4.9v-1.3H91.5v1.3c-0.2-1.6-0.2-3.2-0.2-4.9c0-26.5,21.5-48,48-48
							C165.7,108,187.2,129.4,187.2,155.9z"/>
						<path class="st118" d="M186.8,155.9c0,1.6-0.1,3.3-0.2,4.9v-1.2H91.8v1.2c-0.2-1.6-0.2-3.2-0.2-4.9
							c0-26.3,21.3-47.6,47.6-47.6S186.8,129.6,186.8,155.9z"/>
						<path class="st119" d="M186.4,155.9c0,1.6-0.1,3.2-0.2,4.8v-1.2H92.2v1.2c-0.2-1.6-0.2-3.2-0.2-4.8
							c0-26.1,21.1-47.2,47.2-47.2S186.4,129.8,186.4,155.9z"/>
						<path class="st120" d="M186,155.9c0,1.6-0.1,3.2-0.2,4.8v-1.2H92.6v1.2c-0.2-1.6-0.2-3.2-0.2-4.8c0-25.9,21-46.8,46.8-46.8
							S186,130,186,155.9z"/>
						<path class="st121" d="M185.7,155.9c0,1.6-0.1,3.2-0.2,4.8v-1.1H93v1.1c-0.2-1.6-0.2-3.1-0.2-4.8c0-25.7,20.8-46.5,46.5-46.5
							S185.7,130.3,185.7,155.9z"/>
						<path class="st122" d="M185.3,155.9c0,1.6-0.1,3.2-0.2,4.7v-1.1H93.3v1.1c-0.2-1.6-0.2-3.1-0.2-4.7
							c0-25.5,20.6-46.1,46.1-46.1C164.7,109.8,185.3,130.5,185.3,155.9z"/>
						<path class="st123" d="M184.9,155.9c0,1.6-0.1,3.1-0.2,4.7v-1h-91v1c-0.2-1.5-0.2-3.1-0.2-4.7c0-25.3,20.5-45.7,45.7-45.7
							S184.9,130.7,184.9,155.9z"/>
						<path class="st124" d="M184.5,155.9c0,1.6-0.1,3.1-0.2,4.6v-1H94.1v1c-0.2-1.5-0.2-3.1-0.2-4.6c0-25,20.3-45.3,45.3-45.3
							C164.2,110.6,184.5,130.9,184.5,155.9z"/>
						<path class="st125" d="M184.2,155.9c0,1.6-0.1,3.1-0.2,4.6v-1H94.5v1c-0.2-1.5-0.2-3-0.2-4.6c0-24.8,20.1-45,45-45
							C164,111,184.2,131.1,184.2,155.9z"/>
						<path class="st126" d="M183.8,155.9c0,1.5-0.1,3.1-0.2,4.6v-0.9H94.8v0.9c-0.2-1.5-0.2-3-0.2-4.6c0-24.6,20-44.6,44.6-44.6
							C163.8,111.3,183.8,131.3,183.8,155.9z"/>
						<path class="st127" d="M183.4,155.9c0,1.5-0.1,3-0.2,4.5v-0.9h-88v0.9c-0.2-1.5-0.2-3-0.2-4.5c0-24.4,19.8-44.2,44.2-44.2
							S183.4,131.5,183.4,155.9z"/>
						<path class="st128" d="M183,155.9c0,1.5-0.1,3-0.2,4.5v-0.9H95.6v0.9c-0.1-1.5-0.2-3-0.2-4.5c0-24.2,19.6-43.8,43.8-43.8
							S183,131.7,183,155.9z"/>
						<path class="st129" d="M182.7,155.9c0,1.5-0.1,3-0.2,4.4v-0.8H96v0.8c-0.1-1.5-0.2-2.9-0.2-4.4c0-24,19.5-43.5,43.5-43.5
							S182.7,131.9,182.7,155.9z"/>
						<path class="st130" d="M182.3,155.9c0,1.5-0.1,3-0.2,4.4v-0.8H96.3v0.8c-0.1-1.4-0.2-2.9-0.2-4.4c0-23.8,19.3-43.1,43.1-43.1
							C163,112.8,182.3,132.1,182.3,155.9z"/>
						<path class="st131" d="M181.9,155.9c0,1.5-0.1,2.9-0.2,4.4v-0.7h-85v0.7c-0.1-1.4-0.2-2.9-0.2-4.4c0-23.6,19.1-42.7,42.7-42.7
							S181.9,132.3,181.9,155.9z"/>
						<path class="st132" d="M181.5,155.9c0,1.5-0.1,2.9-0.2,4.3v-0.7H97.1v0.7c-0.1-1.4-0.2-2.9-0.2-4.3c0-23.4,19-42.3,42.3-42.3
							S181.5,132.5,181.5,155.9z"/>
						<path class="st133" d="M181.2,155.9c0,1.4-0.1,2.9-0.2,4.3v-0.7H97.4v0.7c-0.1-1.4-0.2-2.8-0.2-4.3c0-23.2,18.8-42,42-42
							C162.4,114,181.2,132.7,181.2,155.9z"/>
						<path class="st134" d="M180.8,155.9c0,1.4-0.1,2.9-0.2,4.3v-0.6H97.8v0.6c-0.1-1.4-0.2-2.8-0.2-4.3c0-23,18.6-41.6,41.6-41.6
							C162.2,114.3,180.8,132.9,180.8,155.9z"/>
						<path class="st135" d="M180.4,155.9c0,1.4-0.1,2.8-0.2,4.2v-0.6h-82v0.6c-0.1-1.4-0.2-2.8-0.2-4.2c0-22.8,18.5-41.2,41.2-41.2
							S180.4,133.2,180.4,155.9z"/>
						<path class="st136" d="M180,155.9c0,1.4-0.1,2.8-0.2,4.2v-0.6H98.6v0.6c-0.1-1.4-0.2-2.8-0.2-4.2c0-22.6,18.3-40.8,40.8-40.8
							C161.8,115.1,180,133.4,180,155.9z"/>
						<path class="st137" d="M179.7,155.9c0,1.4-0.1,2.8-0.2,4.1v-0.5H98.9v0.5c-0.1-1.4-0.2-2.7-0.2-4.1
							c0-22.3,18.1-40.5,40.5-40.5S179.7,133.6,179.7,155.9z"/>
						<path class="st138" d="M179.3,155.9c0,1.4-0.1,2.8-0.2,4.1v-0.5H99.3v0.5c-0.1-1.3-0.2-2.7-0.2-4.1
							c0-22.1,17.9-40.1,40.1-40.1S179.3,133.8,179.3,155.9z"/>
						<path class="st139" d="M178.9,155.9c0,1.4-0.1,2.7-0.2,4.1v-0.4h-79v0.4c-0.1-1.3-0.2-2.7-0.2-4.1c0-21.9,17.8-39.7,39.7-39.7
							C161.1,116.2,178.9,134,178.9,155.9z"/>
						<path class="st140" d="M178.5,155.9c0,1.4-0.1,2.7-0.2,4v-0.4h-78.3v0.4c-0.1-1.3-0.2-2.7-0.2-4c0-21.7,17.6-39.3,39.3-39.3
							C160.9,116.6,178.5,134.2,178.5,155.9z"/>
						<path class="st141" d="M178.2,155.9c0,1.3-0.1,2.7-0.2,4v-0.4h-77.5v0.4c-0.1-1.3-0.2-2.6-0.2-4c0-21.5,17.4-39,39-39
							S178.2,134.4,178.2,155.9z"/>
						<path class="st142" d="M177.8,155.9c0,1.3-0.1,2.7-0.2,3.9v-0.3h-76.8v0.3c-0.1-1.3-0.2-2.6-0.2-3.9
							c0-21.3,17.3-38.6,38.6-38.6C160.5,117.3,177.8,134.6,177.8,155.9z"/>
						<path class="st143" d="M177.4,155.9c0,1.3-0.1,2.6-0.2,3.9v-0.3h-76v0.3c-0.1-1.3-0.2-2.6-0.2-3.9c0-21.1,17.1-38.2,38.2-38.2
							C160.3,117.7,177.4,134.8,177.4,155.9z"/>
						<path class="st144" d="M177,155.9c0,1.3-0.1,2.6-0.2,3.9v-0.2h-75.3v0.2c-0.1-1.3-0.2-2.6-0.2-3.9c0-20.9,16.9-37.8,37.8-37.8
							S177,135,177,155.9z"/>
						<path class="st145" d="M176.7,155.9c0,2.6-0.3,5.1-0.8,7.6v-3.9h-73.4v3.9c-0.5-2.4-0.8-5-0.8-7.6c0-20.7,16.8-37.5,37.5-37.5
							S176.7,135.2,176.7,155.9z"/>
						<path class="st146" d="M176.3,155.9c0,2.6-0.3,5.1-0.8,7.5v-3.9h-72.7v3.9c-0.5-2.4-0.8-4.9-0.8-7.5
							c0-20.5,16.6-37.1,37.1-37.1S176.3,135.4,176.3,155.9z"/>
						<path class="st147" d="M175.9,155.9c0,2.5-0.3,5-0.7,7.4v-3.8h-71.9v3.8c-0.5-2.4-0.7-4.9-0.7-7.4c0-20.3,16.4-36.7,36.7-36.7
							S175.9,135.6,175.9,155.9z"/>
						<path class="st148" d="M175.5,155.9c0,2.5-0.3,5-0.7,7.3v-3.7h-71.2v3.7c-0.5-2.4-0.7-4.8-0.7-7.3c0-20.1,16.3-36.3,36.3-36.3
							S175.5,135.8,175.5,155.9z"/>
						<path class="st149" d="M175.2,155.9c0,2.5-0.3,4.9-0.7,7.2v-3.6H104v3.6c-0.5-2.3-0.7-4.8-0.7-7.2c0-19.9,16.1-36,36-36
							S175.2,136.1,175.2,155.9z"/>
						<path class="st150" d="M174.8,155.9c0,2.5-0.3,4.9-0.7,7.2v-3.5h-69.7v3.5c-0.5-2.3-0.7-4.7-0.7-7.2
							c0-19.7,15.9-35.6,35.6-35.6S174.8,136.3,174.8,155.9z"/>
						<path class="st151" d="M174.4,155.9c0,2.4-0.2,4.8-0.7,7.1v-3.5h-69v3.5c-0.5-2.3-0.7-4.7-0.7-7.1c0-19.5,15.8-35.2,35.2-35.2
							C158.6,120.7,174.4,136.5,174.4,155.9z"/>
						<path class="st152" d="M174,155.9c0,2.4-0.2,4.8-0.7,7v-3.4h-68.3v3.4c-0.5-2.3-0.7-4.6-0.7-7c0-19.2,15.6-34.8,34.8-34.8
							S174,136.7,174,155.9z"/>
						<path class="st153" d="M173.7,155.9c0,2.4-0.2,4.7-0.7,6.9v-3.3h-67.5v3.3c-0.5-2.2-0.7-4.6-0.7-6.9c0-19,15.4-34.5,34.5-34.5
							C158.2,121.5,173.7,136.9,173.7,155.9z"/>
						<path class="st154" d="M173.3,155.9c0,2.4-0.2,4.7-0.7,6.9v-3.2h-66.8v3.2c-0.5-2.2-0.7-4.5-0.7-6.9
							c0-18.8,15.3-34.1,34.1-34.1S173.3,137.1,173.3,155.9z"/>
						<path class="st155" d="M172.9,155.9c0,2.3-0.2,4.6-0.7,6.8v-3.2h-66.1v3.2c-0.5-2.2-0.7-4.5-0.7-6.8
							c0-18.6,15.1-33.7,33.7-33.7C157.8,122.2,172.9,137.3,172.9,155.9z"/>
						<path class="st156" d="M172.5,155.9c0,2.3-0.2,4.5-0.7,6.7v-3.1h-65.3v3.1c-0.4-2.2-0.7-4.4-0.7-6.7
							c0-18.4,14.9-33.3,33.3-33.3C157.6,122.6,172.5,137.5,172.5,155.9z"/>
						<path class="st157" d="M172.2,155.9c0,2.3-0.2,4.5-0.7,6.6v-3h-64.6v3c-0.4-2.1-0.7-4.4-0.7-6.6c0-18.2,14.8-33,33-33
							S172.2,137.7,172.2,155.9z"/>
						<path class="st158" d="M171.8,155.9c0,2.3-0.2,4.4-0.7,6.6v-2.9h-63.9v2.9c-0.4-2.1-0.7-4.3-0.7-6.6c0-18,14.6-32.6,32.6-32.6
							S171.8,137.9,171.8,155.9z"/>
						<path class="st158" d="M171.4,155.9c0,2.2-0.2,4.4-0.7,6.5v-2.9h-63.1v2.9c-0.4-2.1-0.7-4.3-0.7-6.5
							c0-17.8,14.4-32.2,32.2-32.2C157,123.7,171.4,138.1,171.4,155.9z"/>
						<path class="st159" d="M168.9,155.9c0,2.1-0.2,4.1-0.6,6v-2.4h-58.3v2.4c-0.4-1.9-0.6-3.9-0.6-6c0-16.4,13.3-29.7,29.7-29.7
							C155.6,126.2,168.9,139.5,168.9,155.9z"/>
						<path class="st160" d="M166.5,155.9c0,1.9-0.2,3.7-0.6,5.5v-1.9h-53.4v1.9c-0.4-1.8-0.6-3.6-0.6-5.5
							c0-15.1,12.2-27.3,27.3-27.3C154.3,128.7,166.5,140.9,166.5,155.9z"/>
						<path class="st161" d="M164,155.9c0,1.7-0.2,3.4-0.5,5v-1.4h-48.6v1.4c-0.3-1.6-0.5-3.3-0.5-5c0-13.7,11.1-24.8,24.8-24.8
							C152.9,131.1,164,142.2,164,155.9z"/>
						<path class="st162" d="M161.5,155.9c0,1.5-0.2,3-0.5,4.5v-0.9h-43.7v0.9c-0.3-1.5-0.5-3-0.5-4.5c0-12.3,10-22.3,22.3-22.3
							C151.5,133.6,161.5,143.6,161.5,155.9z"/>
						<path class="st163" d="M159,155.9c0,1.4-0.1,2.7-0.4,4v-0.4h-38.8v0.4c-0.3-1.3-0.4-2.6-0.4-4c0-11,8.9-19.8,19.8-19.8
							S159,145,159,155.9z"/>
						<path class="st164" d="M156.5,155.9c0,2.4-0.5,4.7-1.4,6.8v-3.1h-32v3.1c-0.9-2.1-1.4-4.4-1.4-6.8c0-9.6,7.8-17.3,17.3-17.3
							C148.8,138.6,156.5,146.3,156.5,155.9z"/>
						<path class="st165" d="M154.1,155.9c0,2.1-0.4,4-1.2,5.8v-2.2h-27.4v2.2c-0.7-1.8-1.2-3.7-1.2-5.8c0-8.2,6.7-14.9,14.9-14.9
							C147.4,141.1,154.1,147.7,154.1,155.9z"/>
						<path class="st166" d="M151.6,155.9c0,1.7-0.3,3.3-1,4.8v-1.2h-22.8v1.2c-0.6-1.5-1-3.1-1-4.8c0-6.8,5.5-12.4,12.4-12.4
							C146,143.5,151.6,149.1,151.6,155.9z"/>
						<path class="st167" d="M149.1,155.9c0,2.7-1.1,5.2-2.9,7v-3.4h-14v3.4c-1.8-1.8-2.9-4.3-2.9-7c0-5.5,4.4-9.9,9.9-9.9
							C144.7,146,149.1,150.4,149.1,155.9z"/>
						<path class="st168" d="M146.6,155.9c0,4.1-3.3,7.4-7.4,7.4c-4.1,0-7.4-3.3-7.4-7.4c0-4.1,3.3-7.4,7.4-7.4
							C143.3,148.5,146.6,151.8,146.6,155.9z"/>
						<path class="st169" d="M144.2,155.9c0,2.7-2.2,5-5,5c-2.7,0-5-2.2-5-5s2.2-5,5-5C141.9,151,144.2,153.2,144.2,155.9z"/>
						<path class="st170" d="M141.7,155.9c0,1.4-1.1,2.5-2.5,2.5c-1.4,0-2.5-1.1-2.5-2.5c0-1.4,1.1-2.5,2.5-2.5
							C140.6,153.4,141.7,154.5,141.7,155.9z"/>
					</g>
				</g>
				<g>
					<path class="st171" d="M84,0.7h2.5h108.2h2.5l0,0h48.6h8.8l-5,7.3l-52.3,76.8L145,161.6l-3.8,5.7l-3.9-5.7L85.1,84.8L32.8,8
						l-5-7.3h8.8H84L84,0.7z M188.3,10.1H92.8l5.9,8.7l3.3,4.9l-5.6,2.1c-6,2.2-11.6,4.9-16.6,8.1c-3.4,2.1-6.6,4.4-9.6,6.9
						C76.5,46,84,50.4,92.4,53.9c10.3,4.3,21.9,7.3,34.1,8.5l2.1,0.2l1.2,1.8l10.7,15.8l10.6-15.6l1.2-1.8l2.2-0.2
						c12.5-1.2,24.4-4.2,34.9-8.5c8.6-3.6,16.2-8.1,22.5-13.4c-3-2.5-6.4-4.9-10-7.1l0,0c-5.2-3.2-11-5.9-17.2-8.1l-5.6-2.1l3.4-4.9
						L188.3,10.1L188.3,10.1z M92.8,79.6l48.4,71.2l48.4-71.2l15.6-22.8c-3.8,2.2-7.9,4.2-12.1,5.9c-10.7,4.5-22.7,7.5-35.4,9
						l-13.3,19.5l-3.9,5.7l-3.8-5.7l-13.4-19.7c-12.3-1.5-24.1-4.6-34.5-9c-4-1.7-7.9-3.6-11.5-5.6L92.8,79.6L92.8,79.6z M45.5,10.1
						l17.1,25.1c3.7-3.4,7.9-6.5,12.4-9.3c4-2.5,8.3-4.7,12.8-6.7l-6.2-9.2H45.5L45.5,10.1z M206.9,25.6c4.7,2.8,9.1,6,13,9.5
						l17.1-25.1h-37.3l-6,8.8C198.3,20.9,202.7,23.1,206.9,25.6L206.9,25.6z"/>
				</g>
				<g>
					<path class="st171" d="M212,40.7c-7.7-6.5-17.4-11.8-28.4-15.6c-12.9-4.5-27.4-7-42.5-7c-15.2,0-29.8,2.4-42.6,7
						C87.6,28.9,78,34.2,70.3,40.8c7.7,6.5,17.4,11.7,28.4,15.5c12.8,4.5,27.4,6.9,42.4,6.9c15.1,0,29.7-2.5,42.6-7
						C194.6,52.4,204.3,47.1,212,40.7L212,40.7z M186.7,16.3c14,4.9,26.3,12.1,35.5,21.1l3.4,3.3l-3.4,3.3
						c-9.2,9-21.5,16.2-35.5,21.1c-13.9,4.9-29.5,7.5-45.6,7.5c-16.1,0-31.6-2.6-45.5-7.5c-14-4.9-26.2-12-35.5-20.9l-3.4-3.3
						l3.4-3.3c9.2-9.1,21.3-16.4,35.3-21.3c13.8-4.9,29.4-7.5,45.7-7.5C157.2,8.7,172.8,11.4,186.7,16.3z"/>
				</g>
				<g>
					<path class="st172" d="M139.6,41l0-0.7c0.1-2.7,1.1-5,3-6.8c1.8-1.8,4.1-2.7,6.8-2.7c2.8,0,5.1,1,7,2.9c1.9,2,2.8,4.4,2.8,7.2
						c0,5.3-1.9,9.9-5.8,13.7c-3.9,3.8-8.5,5.7-13.9,5.7c-5.5,0-10.1-1.8-13.7-5.5c-3.7-3.7-5.6-8.4-6-14.2c0.4,3.2,1.5,5.7,3.1,7.3
						c1.7,1.7,3.9,2.5,6.7,2.5c2.7,0,5-0.9,6.8-2.7C138.5,46,139.5,43.7,139.6,41L139.6,41z M152.3,40.7c0-0.8-0.3-1.4-0.8-2
						c-0.5-0.6-1.2-0.8-2-0.8c-0.8,0-1.4,0.3-2,0.8c-0.6,0.5-0.8,1.2-0.8,2c0,0.8,0.3,1.4,0.8,2c0.6,0.5,1.2,0.8,2,0.8
						c0.8,0,1.4-0.3,2-0.8C152,42.1,152.3,41.4,152.3,40.7L152.3,40.7z M132.6,40.7c0-0.8-0.3-1.4-0.8-2c-0.6-0.6-1.2-0.8-2-0.8
						c-0.8,0-1.4,0.3-2,0.8c-0.6,0.5-0.8,1.2-0.8,2c0,0.8,0.3,1.4,0.8,2c0.6,0.5,1.2,0.8,2,0.8c0.8,0,1.5-0.3,2-0.8
						C132.3,42.1,132.6,41.4,132.6,40.7L132.6,40.7z M160.7,40.7c0-5.9-2.1-10.8-6.2-14.9c-4.1-4.1-9.1-6.2-14.9-6.2
						c-5.8,0-10.8,2.1-14.9,6.2c-4.1,4.1-6.2,9.1-6.2,14.9c0,5.8,2.1,10.8,6.2,14.9c4.1,4.1,9.1,6.2,14.9,6.2
						c5.8,0,10.8-2.1,14.9-6.2C158.7,51.5,160.7,46.5,160.7,40.7z"/>
				</g>
				<g>
					<polygon class="st171" points="141.9,106.4 173.3,55.9 204.7,5.4 141.9,5.4 79.1,5.4 110.5,55.9 					"/>
				</g>
				<g>
					<path class="st171" d="M218,40.7c-17.2-16.8-46-26.9-76.9-26.9c-31.1,0-59.5,10-76.7,27.1c17.3,16.7,46,26.7,76.7,26.7
						C171.9,67.6,200.8,57.5,218,40.7z"/>
				</g>
				<g>
					<path class="st173" d="M210.9,40.7c-7.6-6.3-17.1-11.5-27.8-15.3c-12.7-4.4-27.1-6.9-41.9-6.9c-15,0-29.4,2.4-42,6.9
						c-10.7,3.8-20.1,9-27.6,15.4c7.6,6.3,17.1,11.5,27.8,15.2c12.7,4.4,27,6.8,41.8,6.8c14.9,0,29.3-2.4,41.9-6.9
						C193.8,52.2,203.3,47,210.9,40.7L210.9,40.7z M186.2,16.4c13.9,4.9,26,12,35.1,20.8l3.5,3.4l-3.5,3.4
						c-9.1,8.9-21.2,16-35.1,20.8c-13.7,4.8-29.2,7.4-45.1,7.4c-15.9,0-31.3-2.6-45-7.4c-13.8-4.8-25.9-11.9-35.1-20.7l-3.5-3.4
						l3.5-3.4c9.1-9,21.1-16.2,34.9-21C109.6,11.6,125,9,141.1,9C157,9,172.5,11.6,186.2,16.4z"/>
				</g>
				<g>
					<path class="st173" d="M141.9,17.2c13,0,23.5,10.5,23.5,23.5c0,12.9-10.5,23.5-23.5,23.5c-13,0-23.5-10.5-23.5-23.5
						C118.4,27.7,129,17.2,141.9,17.2z"/>
				</g>
				<g>
					<path class="st0" d="M141.9,19.8c11.5,0,20.8,9.3,20.8,20.9c0,11.5-9.3,20.8-20.8,20.8c-11.5,0-20.8-9.3-20.8-20.8
						C121.1,29.2,130.4,19.8,141.9,19.8z"/>
				</g>
				<g>
					<path class="st172" d="M141.9,41l0-0.7c0.1-2.7,1.1-4.9,3-6.7c1.8-1.8,4.1-2.7,6.7-2.7c2.7,0,5,0.9,6.9,2.9
						c1.8,1.9,2.8,4.3,2.8,7.2c0,5.2-1.9,9.7-5.8,13.5c-3.8,3.8-8.4,5.7-13.7,5.7c-5.4,0-9.9-1.8-13.6-5.4c-3.6-3.6-5.6-8.3-5.9-14
						c0.4,3.2,1.4,5.6,3.1,7.2c1.7,1.7,3.9,2.5,6.6,2.5c2.7,0,4.9-0.9,6.7-2.7C140.8,46,141.8,43.7,141.9,41L141.9,41z M154.4,40.7
						c0-0.8-0.3-1.4-0.8-2c-0.5-0.6-1.2-0.8-1.9-0.8c-0.8,0-1.4,0.3-2,0.8c-0.6,0.5-0.8,1.2-0.8,2c0,0.8,0.3,1.4,0.8,2
						c0.5,0.5,1.2,0.8,2,0.8c0.8,0,1.4-0.3,2-0.8C154.1,42.1,154.4,41.5,154.4,40.7L154.4,40.7z M135,40.7c0-0.7-0.3-1.4-0.8-2
						c-0.5-0.5-1.2-0.8-1.9-0.8c-0.8,0-1.4,0.3-2,0.8c-0.6,0.5-0.8,1.2-0.8,2c0,0.8,0.3,1.4,0.8,2c0.6,0.5,1.2,0.8,2,0.8
						c0.8,0,1.4-0.3,2-0.8C134.7,42.1,135,41.5,135,40.7L135,40.7z M162.7,40.7c0-5.8-2-10.7-6.1-14.8c-4.1-4-9-6.1-14.7-6.1
						c-5.8,0-10.7,2-14.7,6.1c-4.1,4.1-6.1,9-6.1,14.8c0,5.8,2,10.7,6.1,14.7c4.1,4.1,9,6.1,14.7,6.1c5.8,0,10.7-2,14.7-6.1
						C160.7,51.4,162.7,46.5,162.7,40.7z"/>
				</g>
			</g>
		</g>
	</g>
	<g>
		<g>
			<path class="st174" d="M492.8,37.8c-5.3-1-12.2-2.3-18-2.7c-6.8-0.5-7.6,7.6-2.2,14.6l23.6,31.2l3.5,6.1c1,1.7,4.3,8.5-10.7,7.4
				c-9-0.7-13-1-24-1.9l0.1,1.3l9.1,2.7c8.9,2,14.2,4.1,26,5.7c4.8,0.7,6.1,0.5,9.9,0c2-0.2,7.9-3,2.7-12.1
				c-5.2-9.2-19.5-24.5-19.5-24.5l-16.2-19.2c0,0-4.7-7.5,2.1-7c1.6,0.1,9.5,0.4,13.1,0C494.9,39.1,494.2,38,492.8,37.8"/>
		</g>
		<g>
			<path class="st174" d="M520.2,10.5c-5.3-1-12.1-2.3-18-2.7c-6.8-0.5-7.6,7.6-2.2,14.6l23.6,31.2l3.5,6.1c1,1.7,3.7,8.3-11.3,7.2
				c-9-0.7-19.7-1.4-28.4-3.1l2.8,2.4c8.9,2.1,25.6,7,37.5,8.7c4.8,0.7,6,0.5,9.9,0c2-0.3,7.9-3,2.7-12.1
				c-5.2-9.2-19.5-24.5-19.5-24.5l-16.2-19.2c0,0-4.7-7.5,2.1-7c1.6,0.1,9.5,0.4,13.1,0C522.2,11.9,521.6,10.8,520.2,10.5"/>
		</g>
	</g>
	<g>
		<path class="st175" d="M273.7,41.7h-11.5c-0.9,0-1.5-0.7-1.5-1.5v-8.7c0-0.8,0.6-1.5,1.5-1.5h35.6c0.9,0,1.5,0.7,1.5,1.5v8.7
			c0,0.8-0.6,1.5-1.5,1.5h-11.5v42.8c0,0.8-0.7,1.5-1.5,1.5h-9.6c-0.8,0-1.5-0.7-1.5-1.5V41.7z"/>
		<path class="st175" d="M303.9,31.5c0-0.8,0.7-1.5,1.5-1.5h8.9c0.8,0,1.5,0.7,1.5,1.5v23.6c2.4-1.2,5.1-1.8,7.5-1.8
			c10.1,0,15.3,7.9,15.3,16.8v14.5c0,0.8-0.7,1.5-1.5,1.5h-8.5c-0.9,0-1.5-0.7-1.5-1.5V69.9c0-3.5-2.3-6.3-5.9-6.3
			c-2.6,0-5.4,1.4-5.4,6.3v14.7c0,1-0.4,1.5-1.8,1.5h-8.7c-0.8,0-1.5-0.7-1.5-1.5V31.5z"/>
		<path class="st175" d="M360.6,53.2c8.2,0,15.2,6.3,15.2,15.1c0,0.6-0.1,1.6-0.2,2.2c-0.1,0.8-0.8,1.4-1.5,1.4h-19.2
			c0.2,2.2,2,5.3,6.2,5.3c2,0,4.3-1,5.6-1.9c0.7-0.6,1.5-0.6,2,0l4,4.8c0.5,0.6,0.6,1.6-0.1,2.3c-2.8,2.8-6.8,4.6-11.9,4.6
			c-9.5,0-16.8-7.6-16.8-16.8C344,61,351.1,53.2,360.6,53.2z M364.5,65.6c-0.2-2.1-2.2-3.8-4.2-3.8c-2.2,0-4,1.7-4.3,3.8H364.5z"/>
		<path class="st175" d="M394.6,32c-0.5-1,0.2-2.1,1.4-2.1h10.7c0.6,0,1.2,0.5,1.4,0.9l13.2,29.3h0.5L435,30.8
			c0.2-0.4,0.7-0.9,1.4-0.9H447c1.2,0,1.8,1,1.4,2.1l-25.2,54c-0.2,0.5-0.7,0.9-1.4,0.9H421c-0.6,0-1.1-0.4-1.4-0.9L394.6,32z"/>
		<path class="st175" d="M450.7,38c0-3.5,2.8-6.4,6.3-6.4s6.4,2.9,6.4,6.4c0,3.5-2.9,6.3-6.4,6.3S450.7,41.5,450.7,38z M451.2,55.5
			c0-0.9,0.7-1.5,1.5-1.5h8.8c0.8,0,1.5,0.6,1.5,1.5v29c0,0.8-0.7,1.5-1.5,1.5h-8.8c-0.8,0-1.5-0.7-1.5-1.5V55.5z"/>
	</g>
	<g>
		<path class="st176" d="M490.9,123c0-0.4,0.3-0.7,0.7-0.7h15.1c0.4,0,0.7,0.3,0.7,0.7v4c0,0.4-0.3,0.7-0.7,0.7h-10.1v4.5h8.3
			c0.4,0,0.7,0.3,0.7,0.7v4c0,0.4-0.3,0.7-0.7,0.7h-8.3v4.9h10.1c0.4,0,0.7,0.3,0.7,0.7v4c0,0.4-0.3,0.7-0.7,0.7h-15.1
			c-0.4,0-0.7-0.3-0.7-0.7V123z"/>
		<path class="st176" d="M517.1,135.6l-8.1-12.2c-0.3-0.5,0-1.1,0.6-1.1h4.8c0.3,0,0.5,0.2,0.6,0.3l5.1,7.5l5.1-7.5
			c0.1-0.1,0.3-0.3,0.6-0.3h4.8c0.6,0,0.9,0.6,0.6,1.1l-8.2,12.2v11.7c0,0.4-0.3,0.7-0.7,0.7h-4.4c-0.4,0-0.7-0.3-0.7-0.7V135.6z"/>
		<path class="st176" d="M533.9,123c0-0.4,0.3-0.7,0.7-0.7h15.1c0.4,0,0.7,0.3,0.7,0.7v4c0,0.4-0.3,0.7-0.7,0.7h-10.1v4.5h8.3
			c0.4,0,0.7,0.3,0.7,0.7v4c0,0.4-0.3,0.7-0.7,0.7h-8.3v4.9h10.1c0.4,0,0.7,0.3,0.7,0.7v4c0,0.4-0.3,0.7-0.7,0.7h-15.1
			c-0.4,0-0.7-0.3-0.7-0.7V123z"/>
		<path class="st176" d="M562,144.4l1.7-3c0.3-0.5,1-0.4,1.2-0.2c0.1,0.1,2.8,2,5.2,2c1.5,0,2.5-0.9,2.5-2.2c0-1.5-1.3-2.7-3.8-3.7
			c-3.1-1.2-7.1-3.7-7.1-8.1c0-3.6,2.8-7.3,8.4-7.3c3.8,0,6.7,1.9,7.8,2.7c0.4,0.3,0.4,0.9,0.2,1.2l-1.9,2.8
			c-0.3,0.4-0.9,0.7-1.2,0.5c-0.3-0.2-3-2.2-5.2-2.2c-1.3,0-2.3,0.9-2.3,1.9c0,1.4,1.1,2.4,4,3.5c2.9,1.1,7.4,3.4,7.4,8.3
			c0,3.8-3.3,7.6-8.6,7.6c-4.8,0-7.4-2-8.2-2.8C561.8,145.1,561.7,145,562,144.4z"/>
		<path class="st176" d="M583.1,123c0-0.4,0.3-0.7,0.7-0.7h4.5c0.4,0,0.7,0.3,0.7,0.7v14.8c0,2.6,1.9,4.6,4.5,4.6
			c2.6,0,4.6-2,4.6-4.6V123c0-0.4,0.3-0.7,0.7-0.7h4.5c0.4,0,0.7,0.3,0.7,0.7v15.1c0,5.6-4.7,10.2-10.5,10.2
			c-5.7,0-10.4-4.6-10.4-10.2V123z"/>
		<path class="st176" d="M609.8,123c0-0.4,0.3-0.7,0.7-0.7h10.9c4.4,0,8,3.5,8,7.9c0,3.4-2.2,6.1-5.4,7.3l5,9.3
			c0.3,0.5,0,1.1-0.6,1.1h-4.9c-0.3,0-0.5-0.2-0.6-0.3l-4.9-9.7h-2.5v9.3c0,0.4-0.3,0.7-0.7,0.7h-4.4c-0.4,0-0.7-0.3-0.7-0.7V123z
			 M621,133.3c1.5,0,2.8-1.4,2.8-2.9c0-1.5-1.3-2.8-2.8-2.8h-5.4v5.7H621z"/>
		<path class="st176" d="M645.6,122c3.1,0,6.4,1.3,8.9,3.4c0.3,0.3,0.4,0.7,0.1,1l-2.9,3.1c-0.3,0.3-0.7,0.3-1,0
			c-1.4-1.3-3-1.8-4.8-1.8c-4,0-7.2,3.4-7.2,7.4c0,4,3.3,7.3,7.2,7.3c1.1,0,2.2-0.1,3.3-0.6v-2.1h-2.3c-0.4,0-0.7-0.3-0.7-0.7v-3.6
			c0-0.4,0.3-0.7,0.7-0.7h7.3c0.4,0,0.7,0.3,0.7,0.7l0,9.8c0,0.2-0.1,0.5-0.3,0.6c0,0-3.8,2.4-9.1,2.4c-7.3,0-13.1-5.8-13.1-13.1
			C632.5,127.8,638.3,122,645.6,122z"/>
		<path class="st176" d="M660,123c0-0.4,0.3-0.7,0.7-0.7h15.1c0.4,0,0.7,0.3,0.7,0.7v4c0,0.4-0.3,0.7-0.7,0.7h-10.1v4.5h8.3
			c0.4,0,0.7,0.3,0.7,0.7v4c0,0.4-0.3,0.7-0.7,0.7h-8.3v4.9h10.1c0.4,0,0.7,0.3,0.7,0.7v4c0,0.4-0.3,0.7-0.7,0.7h-15.1
			c-0.4,0-0.7-0.3-0.7-0.7V123z"/>
		<path class="st176" d="M681.4,123c0-0.4,0.3-0.7,0.7-0.7H693c4.4,0,8,3.5,8,7.9c0,3.4-2.2,6.1-5.4,7.3l5,9.3
			c0.3,0.5,0,1.1-0.6,1.1h-4.9c-0.3,0-0.5-0.2-0.6-0.3l-4.9-9.7h-2.5v9.3c0,0.4-0.3,0.7-0.7,0.7h-4.4c-0.4,0-0.7-0.3-0.7-0.7V123z
			 M692.6,133.3c1.5,0,2.8-1.4,2.8-2.9c0-1.5-1.3-2.8-2.8-2.8h-5.4v5.7H692.6z"/>
		<path class="st176" d="M710.5,135.6l-8.1-12.2c-0.3-0.5,0-1.1,0.6-1.1h4.8c0.3,0,0.5,0.2,0.6,0.3l5.1,7.5l5.1-7.5
			c0.1-0.1,0.3-0.3,0.6-0.3h4.8c0.6,0,0.9,0.6,0.6,1.1l-8.2,12.2v11.7c0,0.4-0.3,0.7-0.7,0.7h-4.4c-0.4,0-0.7-0.3-0.7-0.7V135.6z"/>
		<path class="st176" d="M739.9,134v-0.1l-0.7-0.8c-1.5-1.5-2.4-3.1-2.4-5.2c0-2.8,2.4-5.9,7.1-5.9c4.2,0,7.3,2.7,7.3,6.1
			c0,4-4,6.2-4,6.5l3.3,3.4c0.5-0.8,1-1.9,1.2-2.8c0.2-0.8,0.4-1.4,1.4-1l2.7,1c1,0.4,0.6,1.2,0.5,1.7c-0.9,2.6-2.3,4.5-2.3,4.6
			l3.1,2.9c0.5,0.4,0.8,0.8-0.1,1.7l-2,2.1c-0.4,0.4-1.1,0.5-1.6-0.1l-2.4-2.4c0,0-2.5,2.8-8,2.8c-4.7,0-8-3.1-8-6.9
			C734.9,136.1,739.9,134,739.9,134z M743.5,143.7c2.9,0,3.9-1.9,3.9-1.9l-4.8-5.1c0,0-2.6,0.9-2.6,3.8
			C740.1,142.4,741.6,143.7,743.5,143.7z M746.5,128.4c0-1.2-1.1-2.3-2.7-2.3c-1.4,0-2.2,0.8-2.2,1.8c0,1.1,0.7,1.8,1.7,2.9l0.8,0.8
			C744.1,131.5,746.5,130.4,746.5,128.4z"/>
		<path class="st176" d="M769.1,123c0-0.4,0.3-0.7,0.7-0.7h4.4c0.4,0,0.7,0.3,0.7,0.7v19.5h8.7c0.4,0,0.7,0.3,0.7,0.7v4
			c0,0.4-0.3,0.7-0.7,0.7h-13.7c-0.4,0-0.7-0.3-0.7-0.7V123z"/>
		<path class="st176" d="M785.7,147l11.4-24.6c0.1-0.2,0.4-0.4,0.6-0.4h0.4c0.3,0,0.5,0.2,0.6,0.4l11.4,24.6c0.2,0.5-0.1,1-0.6,1
			h-4.1c-0.7,0-1-0.2-1.3-0.9l-1.3-2.9H793l-1.3,2.9c-0.2,0.4-0.6,0.9-1.3,0.9h-4C785.8,147.9,785.5,147.4,785.7,147z M800.7,139.1
			l-2.8-6h0l-2.7,6H800.7z"/>
		<path class="st176" d="M811.7,144.4l1.7-3c0.3-0.5,1-0.4,1.2-0.2c0.1,0.1,2.8,2,5.2,2c1.5,0,2.5-0.9,2.5-2.2
			c0-1.5-1.3-2.7-3.8-3.7c-3.1-1.2-7.1-3.7-7.1-8.1c0-3.6,2.8-7.3,8.4-7.3c3.8,0,6.7,1.9,7.8,2.7c0.4,0.3,0.4,0.9,0.2,1.2l-1.9,2.8
			c-0.3,0.4-0.9,0.7-1.2,0.5c-0.3-0.2-3-2.2-5.2-2.2c-1.3,0-2.3,0.9-2.3,1.9c0,1.4,1.1,2.4,4,3.5c2.9,1.1,7.4,3.4,7.4,8.3
			c0,3.8-3.3,7.6-8.6,7.6c-4.8,0-7.4-2-8.2-2.8C811.5,145.1,811.4,145,811.7,144.4z"/>
		<path class="st176" d="M833.2,123c0-0.4,0.3-0.7,0.7-0.7H849c0.4,0,0.7,0.3,0.7,0.7v4c0,0.4-0.3,0.7-0.7,0.7h-10.1v4.5h8.3
			c0.4,0,0.7,0.3,0.7,0.7v4c0,0.4-0.3,0.7-0.7,0.7h-8.3v4.9H849c0.4,0,0.7,0.3,0.7,0.7v4c0,0.4-0.3,0.7-0.7,0.7h-15.1
			c-0.4,0-0.7-0.3-0.7-0.7V123z"/>
		<path class="st176" d="M854.6,123c0-0.4,0.3-0.7,0.7-0.7h10.9c4.4,0,8,3.5,8,7.9c0,3.4-2.2,6.1-5.4,7.3l5,9.3
			c0.3,0.5,0,1.1-0.6,1.1h-4.9c-0.3,0-0.5-0.2-0.6-0.3l-4.9-9.7h-2.5v9.3c0,0.4-0.3,0.7-0.7,0.7h-4.4c-0.4,0-0.7-0.3-0.7-0.7V123z
			 M865.8,133.3c1.5,0,2.8-1.4,2.8-2.9c0-1.5-1.3-2.8-2.8-2.8h-5.4v5.7H865.8z"/>
		<path class="st176" d="M898.6,122c3.7,0,6.4,1.1,8.8,3.4c0.3,0.3,0.3,0.7,0,1l-2.9,3c-0.3,0.3-0.7,0.3-0.9,0
			c-1.4-1.2-3.1-1.9-4.9-1.9c-4.1,0-7.2,3.4-7.2,7.5c0,4.1,3.1,7.4,7.2,7.4c1.7,0,3.6-0.6,4.9-1.8c0.3-0.2,0.7-0.2,1,0l2.9,3
			c0.3,0.3,0.2,0.7,0,1c-2.5,2.4-5.6,3.5-8.9,3.5c-7.3,0-13.2-5.8-13.2-13.1C885.4,127.8,891.2,122,898.6,122z"/>
		<path class="st176" d="M911.8,123c0-0.4,0.3-0.7,0.7-0.7h15.1c0.4,0,0.7,0.3,0.7,0.7v4c0,0.4-0.3,0.7-0.7,0.7h-10.1v4.5h8.3
			c0.4,0,0.7,0.3,0.7,0.7v4c0,0.4-0.3,0.7-0.7,0.7h-8.3v4.9h10.1c0.4,0,0.7,0.3,0.7,0.7v4c0,0.4-0.3,0.7-0.7,0.7h-15.1
			c-0.4,0-0.7-0.3-0.7-0.7V123z"/>
		<path class="st176" d="M933.2,122.6c0-0.4,0.3-0.7,0.7-0.7h0.9l14.6,14h0v-13c0-0.4,0.3-0.7,0.7-0.7h4.4c0.4,0,0.7,0.3,0.7,0.7
			v24.6c0,0.4-0.3,0.7-0.7,0.7h-0.6c-0.1,0-0.4-0.1-0.5-0.2L939,133.6h0v13.6c0,0.4-0.3,0.7-0.7,0.7h-4.4c-0.4,0-0.7-0.3-0.7-0.7
			L933.2,122.6z"/>
		<path class="st176" d="M964.8,127.7h-5.2c-0.4,0-0.7-0.3-0.7-0.7v-4c0-0.4,0.3-0.7,0.7-0.7h16.2c0.4,0,0.7,0.3,0.7,0.7v4
			c0,0.4-0.3,0.7-0.7,0.7h-5.2v19.5c0,0.4-0.3,0.7-0.7,0.7h-4.4c-0.4,0-0.7-0.3-0.7-0.7V127.7z"/>
		<path class="st176" d="M980.2,123c0-0.4,0.3-0.7,0.7-0.7H996c0.4,0,0.7,0.3,0.7,0.7v4c0,0.4-0.3,0.7-0.7,0.7h-10.1v4.5h8.3
			c0.4,0,0.7,0.3,0.7,0.7v4c0,0.4-0.3,0.7-0.7,0.7h-8.3v4.9H996c0.4,0,0.7,0.3,0.7,0.7v4c0,0.4-0.3,0.7-0.7,0.7h-15.1
			c-0.4,0-0.7-0.3-0.7-0.7V123z"/>
		<path class="st176" d="M1001.6,123c0-0.4,0.3-0.7,0.7-0.7h10.9c4.4,0,8,3.5,8,7.9c0,3.4-2.2,6.1-5.4,7.3l5,9.3
			c0.3,0.5,0,1.1-0.6,1.1h-4.9c-0.3,0-0.5-0.2-0.6-0.3l-4.9-9.7h-2.5v9.3c0,0.4-0.3,0.7-0.7,0.7h-4.4c-0.4,0-0.7-0.3-0.7-0.7V123z
			 M1012.7,133.3c1.5,0,2.8-1.4,2.8-2.9c0-1.5-1.3-2.8-2.8-2.8h-5.4v5.7H1012.7z"/>
	</g>
	<g>
		<path class="st175" d="M552,38c0-3.5,2.8-6.4,6.3-6.4s6.4,2.9,6.4,6.4c0,3.5-2.9,6.3-6.4,6.3S552,41.5,552,38z M552.5,55.5
			c0-0.9,0.7-1.5,1.5-1.5h8.8c0.8,0,1.5,0.6,1.5,1.5v29c0,0.8-0.7,1.5-1.5,1.5H554c-0.8,0-1.5-0.7-1.5-1.5V55.5z"/>
		<path class="st175" d="M587.2,53.2c9.1,0,16.7,7.7,16.7,16.8c0,9.2-7.5,16.9-16.7,16.9c-9.1,0-16.7-7.7-16.7-16.9
			C570.5,60.9,578,53.2,587.2,53.2z M587.2,76.5c3.5,0,6.3-3,6.3-6.6c0-3.5-2.8-6.4-6.3-6.4s-6.3,2.9-6.3,6.4
			C580.8,73.6,583.6,76.5,587.2,76.5z"/>
		<path class="st175" d="M610,55.5c0-0.9,0.7-1.5,1.5-1.5h3.8c0.5,0,1.2,0.4,1.4,1l1.3,3.2c1.8-1.9,5.5-5,11.3-5
			c9.9,0,15.2,7.6,15.2,16.8v14.6c0,0.8-0.7,1.5-1.5,1.5h-8.6c-0.9,0-1.5-0.7-1.5-1.5v-15c0-3.2-1.8-6-5.5-6c-3.2,0-6.1,2.3-6.1,5.6
			v15.4c0,0.7-0.3,1.5-1.4,1.5h-8.4c-0.8,0-1.5-0.7-1.5-1.5V55.5z"/>
		<path class="st175" d="M672.6,31.5c0-0.8,0.6-1.5,1.5-1.5h33.2c0.9,0,1.5,0.7,1.5,1.5v8.7c0,0.8-0.6,1.5-1.5,1.5h-22.2v9.9h18.3
			c0.8,0,1.5,0.7,1.5,1.5V62c0,0.9-0.7,1.5-1.5,1.5h-18.3v10.8h22.2c0.9,0,1.5,0.7,1.5,1.5v8.7c0,0.8-0.6,1.5-1.5,1.5h-33.2
			c-0.9,0-1.5-0.7-1.5-1.5V31.5z"/>
		<path class="st175" d="M710.9,56.1c-0.5-1,0.2-2.1,1.4-2.1h9.1c0.6,0,1.1,0.4,1.4,0.9l6.2,14.9h0.2l6.3-14.9
			c0.2-0.5,0.7-0.9,1.4-0.9h9.1c1.2,0,1.9,1,1.4,2.1l-24.5,53.1c-0.2,0.5-0.7,1-1.4,1h-9c-1.2,0-1.9-1-1.4-2.2l11.9-25.2L710.9,56.1
			z"/>
		<path class="st175" d="M766.2,53.2c8.2,0,15.2,6.3,15.2,15.1c0,0.6-0.1,1.6-0.2,2.2c-0.1,0.8-0.8,1.4-1.5,1.4h-19.2
			c0.2,2.2,2,5.3,6.2,5.3c2,0,4.3-1,5.6-1.9c0.7-0.6,1.5-0.6,2,0l4,4.8c0.5,0.6,0.6,1.6-0.1,2.3c-2.8,2.8-6.8,4.6-11.9,4.6
			c-9.5,0-16.8-7.6-16.8-16.8C749.6,61,756.8,53.2,766.2,53.2z M770.1,65.6c-0.2-2.1-2.2-3.8-4.3-3.8c-2.2,0-4,1.7-4.3,3.8H770.1z"
			/>
		<path class="st175" d="M832.4,29.2c8,0,14,2.5,19.4,7.5c0.7,0.6,0.7,1.6,0.1,2.2l-6.3,6.5c-0.6,0.6-1.4,0.6-2,0
			c-3-2.6-6.9-4.1-10.8-4.1c-9.1,0-15.7,7.5-15.7,16.5c0,8.9,6.7,16.3,15.8,16.3c3.8,0,7.9-1.4,10.7-3.8c0.6-0.5,1.6-0.5,2.1,0.1
			l6.3,6.7c0.6,0.6,0.5,1.6-0.1,2.2c-5.5,5.3-12.3,7.8-19.5,7.8c-16,0-28.9-12.7-28.9-28.8S816.3,29.2,832.4,29.2z"/>
		<path class="st175" d="M871.7,53.2c8.2,0,15.2,6.3,15.2,15.1c0,0.6-0.1,1.6-0.2,2.2c-0.1,0.8-0.8,1.4-1.5,1.4H866
			c0.2,2.2,2,5.3,6.2,5.3c2,0,4.3-1,5.6-1.9c0.7-0.6,1.5-0.6,2,0l4,4.8c0.5,0.6,0.6,1.6-0.1,2.3c-2.8,2.8-6.8,4.6-11.9,4.6
			c-9.5,0-16.8-7.6-16.8-16.8C855.1,61,862.3,53.2,871.7,53.2z M875.7,65.6c-0.2-2.1-2.2-3.8-4.3-3.8c-2.2,0-4,1.7-4.3,3.8H875.7z"
			/>
		<path class="st175" d="M892.7,55.5c0-0.9,0.7-1.5,1.5-1.5h3.8c0.5,0,1.2,0.4,1.4,1l1.3,3.2c1.8-1.9,5.5-5,11.3-5
			c9.9,0,15.2,7.6,15.2,16.8v14.6c0,0.8-0.7,1.5-1.5,1.5h-8.6c-0.9,0-1.5-0.7-1.5-1.5v-15c0-3.2-1.8-6-5.5-6c-3.2,0-6.1,2.3-6.1,5.6
			v15.4c0,0.7-0.3,1.5-1.4,1.5h-8.4c-0.8,0-1.5-0.7-1.5-1.5V55.5z"/>
		<path class="st175" d="M936.1,64.2H934c-0.8,0-1.4-0.7-1.4-1.5v-7.1c0-0.9,0.6-1.5,1.4-1.5h2.1v-8.9c0-0.8,0.7-1.5,1.5-1.5h8.6
			c0.8,0,1.4,0.7,1.4,1.5V54h5.9c0.9,0,1.5,0.6,1.5,1.5v7.1c0,0.8-0.6,1.5-1.5,1.5h-5.9v10c0,1.8,1.2,1.9,2.2,1.9
			c1.1,0,2.3-0.4,3.1-0.6c0.8-0.2,1.5,0.2,1.8,1l1.8,6.7c0.2,0.7-0.2,1.6-1,1.8c0,0-5.7,1.8-9.7,1.8c-6.1,0-9.6-3.8-9.6-11.1V64.2z"
			/>
		<path class="st175" d="M976.6,53.2c8.2,0,15.2,6.3,15.2,15.1c0,0.6-0.1,1.6-0.2,2.2c-0.1,0.8-0.8,1.4-1.5,1.4h-19.2
			c0.2,2.2,2,5.3,6.2,5.3c2,0,4.3-1,5.6-1.9c0.7-0.6,1.5-0.6,2,0l4,4.8c0.5,0.6,0.6,1.6-0.1,2.3c-2.8,2.8-6.8,4.6-11.9,4.6
			c-9.5,0-16.8-7.6-16.8-16.8C960,61,967.2,53.2,976.6,53.2z M980.5,65.6c-0.2-2.1-2.2-3.8-4.3-3.8c-2.2,0-4,1.7-4.3,3.8H980.5z"/>
		<path class="st175" d="M997.6,55.5c0-0.9,0.7-1.5,1.5-1.5h3.8c0.9,0,1.2,0.5,1.4,1l1.4,3.5c1.6-2.3,4.6-5.3,8.7-5.3
			c4.4,0,7.5,1.6,6.4,3.4l-3.9,6.4c-0.3,0.6-0.9,1-1.8,0.7c-0.4-0.2-1.2-0.4-1.9-0.4c-2.4,0-4.2,1.8-4.2,4.6v16.6
			c0,1-0.5,1.5-1.8,1.5h-8.2c-0.8,0-1.5-0.7-1.5-1.5V55.5z"/>
	</g>
</g>
</svg>
