<?xml version="1.0" encoding="utf-8"?>
<!-- Generator: Adobe Illustrator 23.0.0, SVG Export Plug-In . SVG Version: 6.00 Build 0)  -->
<svg version="1.1" id="Layer_1" xmlns="http://www.w3.org/2000/svg" xmlns:xlink="http://www.w3.org/1999/xlink" x="0px" y="0px"
	 viewBox="0 0 30 30" style="enable-background:new 0 0 30 30;" xml:space="preserve">
<style type="text/css">
	.st0{fill:#FFFFFF;}
</style>
<g>
	<path class="st0" d="M10.6,14.6c1.2,2.1,2.8,3.6,4.8,4.8c0.2-0.5,0.5-0.9,0.7-1.4c0.2-0.5,0.5-0.6,1-0.3c1.1,0.5,2.3,0.8,3.6,0.8
		c0.1,0,0.2,0,0.4,0c0.3,0,0.4,0.2,0.4,0.5c0,1,0,2,0,3c0,0.3-0.2,0.5-0.6,0.5c-1,0-2-0.1-2.9-0.3c-4.9-1.2-8.2-4.3-9.8-9.1
		c-0.4-1.3-0.6-2.6-0.6-3.9c0-0.4,0.2-0.6,0.6-0.6c0.9,0,1.9,0,2.8,0c0.4,0,0.6,0.2,0.6,0.6c0,1.4,0.3,2.7,0.9,3.9
		c0.2,0.3,0.1,0.6-0.3,0.8c-0.4,0.2-0.9,0.4-1.3,0.6C10.8,14.5,10.7,14.5,10.6,14.6z"/>
	<path class="st0" d="M22.5,14.1c0,0.1,0,0.3,0,0.4c0,0.3-0.2,0.4-0.5,0.5c-0.2,0-0.5-0.2-0.5-0.4c0-0.3,0-0.6-0.1-0.9
		c-0.4-2.8-2.5-4.8-5.3-5.1c-0.2,0-0.4,0-0.5,0C15.2,8.5,15,8.3,15,8c0-0.3,0.3-0.5,0.6-0.5c3.2,0.1,5.9,2.2,6.6,5.3
		C22.4,13.2,22.4,13.7,22.5,14.1C22.5,14.1,22.5,14.1,22.5,14.1z"/>
	<path class="st0" d="M20.5,14.3c0,0.1,0,0.2,0,0.4C20.4,14.9,20.2,15,20,15c-0.2,0-0.4-0.1-0.5-0.4c0-0.2,0-0.4-0.1-0.6
		c-0.2-1.9-1.8-3.4-3.8-3.5c-0.1,0-0.1,0-0.2,0c-0.3,0-0.5-0.2-0.5-0.5c0-0.3,0.2-0.5,0.6-0.5c0.3,0,0.7,0,1,0.1
		C18.8,10.2,20.3,11.9,20.5,14.3z"/>
	<path class="st0" d="M18.5,14.4c0,0,0,0,0,0.1c0,0.3-0.2,0.5-0.5,0.5c-0.2,0-0.4-0.2-0.5-0.4c0-0.2-0.1-0.5-0.1-0.7
		c-0.3-0.8-0.8-1.2-1.6-1.3c-0.1,0-0.2,0-0.3-0.1C15.1,12.4,15,12.2,15,12c0-0.2,0.2-0.5,0.5-0.4c0.4,0,0.7,0.1,1.1,0.2
		C17.6,12.1,18.4,13.2,18.5,14.4z"/>
</g>
</svg>
