<?xml version="1.0" encoding="utf-8"?>
<!-- Generator: Adobe Illustrator 23.0.0, SVG Export Plug-In . SVG Version: 6.00 Build 0)  -->
<svg version="1.1" id="Layer_1" xmlns="http://www.w3.org/2000/svg" xmlns:xlink="http://www.w3.org/1999/xlink" x="0px" y="0px"
	 viewBox="0 0 30 30" style="enable-background:new 0 0 30 30;" xml:space="preserve">
<style type="text/css">
	.st0{fill:#FFFFFF;}
</style>
<path class="st0" d="M8.5,21.5c0.1-0.2,0.1-0.4,0.2-0.6c0.4-1,0.7-2,1.1-3c0.1-0.1,0-0.3,0-0.4c-1.1-2.4-0.9-4.7,0.7-6.8
	c1.5-1.8,3.4-2.6,5.8-2.2c2.6,0.4,4.7,2.3,5.2,4.9c0.4,2.3-0.2,4.3-1.9,5.8c-1.8,1.6-3.8,2-6.1,1.3c-0.3-0.1-0.6-0.2-0.9-0.4
	c-0.2-0.1-0.3-0.1-0.4,0c-1.1,0.4-2.1,0.8-3.2,1.1C8.7,21.4,8.6,21.5,8.5,21.5z M13.8,13.6c0.1-0.1,0.2-0.1,0.2-0.2
	c0.1-0.1,0.2-0.2,0.2-0.2c0.2-0.2,0.2-0.4,0-0.6c-0.3-0.3-0.5-0.6-0.8-0.8c-0.2-0.2-0.4-0.2-0.6,0c-0.2,0.2-0.4,0.4-0.6,0.6
	c-0.3,0.3-0.4,0.6-0.3,1c0.1,0.5,0.3,0.9,0.6,1.3c0.6,1,1.4,1.9,2.4,2.6c0.5,0.4,1.1,0.7,1.8,0.9c0.4,0.1,0.7,0,1-0.3
	c0.2-0.2,0.4-0.4,0.5-0.5c0.2-0.2,0.2-0.5,0-0.7c-0.3-0.3-0.5-0.5-0.8-0.8c-0.3-0.2-0.4-0.2-0.7,0c-0.2,0.2-0.3,0.3-0.4,0.5
	C15.2,15.6,14.4,14.8,13.8,13.6z"/>
</svg>
